<svg width="261" height="47" viewBox="0 0 261 47" fill="none" xmlns="http://www.w3.org/2000/svg">
<mask id="path-1-outside-1_2_255" maskUnits="userSpaceOnUse" x="0.218552" y="0.875931" width="261" height="31" fill="white">
<rect fill="white" x="0.218552" y="0.875931" width="261" height="31"/>
<path d="M14.0179 11.8076C15.6553 11.8076 17.2008 12.1864 18.6546 12.9439C20.1236 13.7014 21.3171 14.7745 22.2353 16.1633C23.1687 17.538 23.6354 19.1652 23.6354 21.045C23.6354 22.9107 23.1381 24.5659 22.1435 26.0108C21.1488 27.4557 19.8175 28.5919 18.1496 29.4195C16.4816 30.2472 14.6377 30.661 12.6178 30.661C10.5673 30.661 8.70803 30.2612 7.04008 29.4616C5.37213 28.662 4.04082 27.5258 3.04617 26.0529C2.06682 24.566 1.57716 22.8125 1.57716 20.7925C1.57716 18.5901 1.97501 16.7384 2.77073 15.2374C3.56645 13.7224 4.48459 12.3828 5.52515 11.2184L10.4831 12.8177C10.728 12.5652 11.1488 12.3337 11.7455 12.1232C12.3423 11.9128 13.0998 11.8076 14.0179 11.8076ZM12.6178 26.3264C13.6583 26.3264 14.5994 26.095 15.4411 25.6321C16.2827 25.1691 16.956 24.5519 17.461 23.7804C17.9659 22.9948 18.2184 22.1251 18.2184 21.1712C18.2184 20.2313 17.9659 19.3756 17.461 18.6041C16.956 17.8326 16.2827 17.2153 15.4411 16.7524C14.5994 16.2895 13.6583 16.0581 12.6178 16.0581C11.5925 16.0581 10.6514 16.2895 9.7945 16.7524C8.95287 17.2153 8.27957 17.8326 7.7746 18.6041C7.26962 19.3756 7.01713 20.2313 7.01713 21.1712C7.01713 22.1251 7.26962 22.9948 7.7746 23.7804C8.27957 24.5519 8.95287 25.1691 9.7945 25.6321C10.6514 26.095 11.5925 26.3264 12.6178 26.3264Z"/>
<path fill-rule="evenodd" clip-rule="evenodd" d="M10.4831 12.8177C10.6944 12.5998 11.0366 12.3976 11.5098 12.2111C11.5851 12.1814 11.6636 12.1521 11.7455 12.1232C12.3423 11.9128 13.0998 11.8076 14.0179 11.8076C15.6553 11.8076 17.2008 12.1864 18.6546 12.9439C20.1236 13.7014 21.3171 14.7745 22.2353 16.1633C23.1687 17.538 23.6354 19.1652 23.6354 21.045C23.6354 22.9107 23.1381 24.5659 22.1435 26.0108C21.1488 27.4557 19.8175 28.5919 18.1496 29.4195C16.4816 30.2472 14.6377 30.661 12.6178 30.661C10.5673 30.661 8.70803 30.2612 7.04008 29.4616C5.37213 28.662 4.04082 27.5258 3.04617 26.0529C2.06682 24.566 1.57716 22.8125 1.57716 20.7925C1.57716 18.5901 1.97501 16.7384 2.77073 15.2374C3.56645 13.7224 4.48459 12.3828 5.52515 11.2184L13.3294 2.38094H20.0777L10.4831 12.8177ZM5.2471 11.0109L5.24777 11.0101L13.1583 2.05216H20.849L11.9734 11.7068C12.5548 11.5522 13.2389 11.4789 14.018 11.4789C15.7186 11.4789 17.3248 11.8729 18.8311 12.6577C20.3558 13.4441 21.5928 14.5577 22.541 15.9913C23.5144 17.4257 23.9941 19.1147 23.9941 21.045C23.9941 22.9669 23.4809 24.6841 22.4468 26.1863C21.4187 27.6797 20.0414 28.8548 18.3203 29.7087C16.5965 30.5641 14.6933 30.9898 12.6178 30.9898C10.5147 30.9898 8.59766 30.5794 6.87393 29.753C5.14876 28.926 3.76963 27.7488 2.74128 26.226L2.73918 26.2229C1.72088 24.6768 1.21855 22.8625 1.21855 20.7925C1.21855 18.5558 1.62233 16.6518 2.44796 15.0942C3.25436 13.559 4.18697 12.1972 5.2471 11.0109ZM12.6178 25.9977C13.5974 25.9977 14.4741 25.7806 15.2566 25.3502C16.0473 24.9152 16.6782 24.3371 17.1528 23.6123C17.6232 22.88 17.8598 22.0688 17.8598 21.1712C17.8598 20.2882 17.6235 19.4914 17.1535 18.7733C16.6788 18.048 16.0477 17.4695 15.2566 17.0344C14.4741 16.604 13.5974 16.3869 12.6178 16.3869C11.6551 16.3869 10.7776 16.6033 9.97791 17.035C9.1873 17.4701 8.55663 18.0484 8.08218 18.7733C7.61217 19.4914 7.37582 20.2882 7.37582 21.1712C7.37582 22.0688 7.61244 22.88 8.08288 23.6123C8.55726 24.3367 9.1877 24.9147 9.97791 25.3495C10.7776 25.7812 11.6551 25.9977 12.6178 25.9977ZM9.7945 25.6321C8.95287 25.1691 8.27957 24.5519 7.7746 23.7804C7.26962 22.9948 7.01713 22.1251 7.01713 21.1712C7.01713 20.2313 7.26962 19.3756 7.7746 18.6041C8.27957 17.8326 8.95287 17.2153 9.7945 16.7524C10.6514 16.2895 11.5925 16.0581 12.6178 16.0581C13.6583 16.0581 14.5994 16.2895 15.4411 16.7524C16.2827 17.2153 16.956 17.8326 17.461 18.6041C17.9659 19.3756 18.2184 20.2313 18.2184 21.1712C18.2184 22.1251 17.9659 22.9948 17.461 23.7804C16.956 24.5519 16.2827 25.1691 15.4411 25.6321C14.5994 26.095 13.6583 26.3264 12.6178 26.3264C11.5925 26.3264 10.6514 26.095 9.7945 25.6321Z"/>
<path d="M68.6857 2.38093H74.447L86.1073 30.1561H80.0017L77.6375 24.1592H65.5181L63.108 30.1561H56.9794L68.6857 2.38093ZM67.4003 19.5089H75.7553L71.6007 8.73555H71.5319L67.4003 19.5089Z"/>
<path d="M35.1894 2.38093H40.9278V25.5058H52.2897V30.1561H35.1894V2.38093Z"/>
<path fill-rule="evenodd" clip-rule="evenodd" d="M193.686 6.70811H175.295V2.76278H193.686V6.70811ZM193.686 18.33H175.295V14.3847H193.686V18.33ZM193.686 30.2793H175.295V26.3339H193.686V30.2793Z"/>
<path d="M132.364 15.9318L144.208 30.1561H137.345L127.269 17.7414V30.1561H121.53V2.38093H127.269V14.2695L136.611 2.38093H143.107L132.364 15.9318Z"/>
<path d="M106.179 25.4637C107.77 25.4637 109.186 25.2603 110.425 24.8535C111.665 24.4327 112.575 24.0189 113.157 23.6121L115.613 28.094C114.909 28.6551 113.692 29.2232 111.963 29.7984C110.249 30.3735 108.199 30.6611 105.811 30.6611C103.577 30.6611 101.489 30.3034 99.5452 29.5879C97.6018 28.8585 95.8956 27.8485 94.4265 26.5579C92.9575 25.2533 91.8098 23.7313 90.9835 21.9919C90.1572 20.2384 89.744 18.3446 89.744 16.3106C89.744 14.2765 90.1495 12.3828 90.9606 10.6293C91.7869 8.8618 92.9346 7.32575 94.4036 6.02116C95.8726 4.71657 97.5788 3.69955 99.5222 2.9701C101.481 2.24065 103.577 1.87593 105.811 1.87593C108.199 1.87593 110.249 2.1635 111.963 2.73864C113.692 3.31378 114.909 3.88191 115.613 4.44303L113.157 8.92492C112.575 8.51811 111.665 8.11131 110.425 7.7045C109.186 7.28367 107.77 7.07325 106.179 7.07325C104.557 7.07325 103.111 7.31172 101.841 7.78867C100.586 8.26561 99.5146 8.93194 98.627 9.78763C97.7548 10.6293 97.0891 11.6042 96.6301 12.7124C96.171 13.8206 95.9415 14.999 95.9415 16.2475C95.9415 17.51 96.171 18.7023 96.6301 19.8246C97.0891 20.9328 97.7548 21.9147 98.627 22.7704C99.5146 23.6121 100.586 24.2714 101.841 24.7483C103.111 25.2253 104.557 25.4637 106.179 25.4637Z"/>
<path d="M154.972 7.03116H147.374V2.38093H168.285V7.03116H160.71V30.1561H154.972V7.03116Z"/>
<path d="M220.306 25.4637C221.898 25.4637 223.313 25.2603 224.553 24.8535C225.792 24.4327 226.703 24.0189 227.284 23.6121L229.74 28.094C229.036 28.6551 227.82 29.2232 226.091 29.7984C224.377 30.3735 222.326 30.6611 219.939 30.6611C217.705 30.6611 215.616 30.3034 213.673 29.5879C211.729 28.8585 210.023 27.8485 208.554 26.5579C207.085 25.2533 205.937 23.7313 205.111 21.9919C204.285 20.2384 203.872 18.3446 203.872 16.3106C203.872 14.2765 204.277 12.3828 205.088 10.6293C205.915 8.8618 207.062 7.32575 208.531 6.02116C210 4.71657 211.706 3.69955 213.65 2.9701C215.609 2.24065 217.705 1.87593 219.939 1.87593C222.326 1.87593 224.377 2.1635 226.091 2.73864C227.82 3.31378 229.036 3.88191 229.74 4.44303L227.284 8.92492C226.703 8.51811 225.792 8.11131 224.553 7.7045C223.313 7.28367 221.898 7.07325 220.306 7.07325C218.684 7.07325 217.238 7.31172 215.968 7.78867C214.713 8.26561 213.642 8.93194 212.755 9.78763C211.882 10.6293 211.217 11.6042 210.758 12.7124C210.299 13.8206 210.069 14.999 210.069 16.2475C210.069 17.51 210.299 18.7023 210.758 19.8246C211.217 20.9328 211.882 21.9147 212.755 22.7704C213.642 23.6121 214.713 24.2714 215.968 24.7483C217.238 25.2253 218.684 25.4637 220.306 25.4637Z"/>
<path d="M253.699 18.541H241.672V30.1561H235.979V2.38093H241.672V13.9118H253.699V2.38093H259.392V30.1561H253.699V18.541Z"/>
<path d="M14.0179 11.8076C15.6553 11.8076 17.2008 12.1864 18.6546 12.9439C20.1236 13.7014 21.3171 14.7745 22.2353 16.1633C23.1687 17.538 23.6354 19.1652 23.6354 21.045C23.6354 22.9107 23.1381 24.5659 22.1435 26.0108C21.1488 27.4557 19.8175 28.5919 18.1496 29.4195C16.4816 30.2472 14.6377 30.661 12.6178 30.661C10.5673 30.661 8.70803 30.2612 7.04008 29.4616C5.37213 28.662 4.04082 27.5258 3.04617 26.0529C2.06682 24.566 1.57716 22.8125 1.57716 20.7925C1.57716 18.5901 1.97501 16.7384 2.77073 15.2374C3.56645 13.7224 4.48459 12.3828 5.52515 11.2184L10.4831 12.8177C10.728 12.5652 11.1488 12.3337 11.7455 12.1232C12.3423 11.9128 13.0998 11.8076 14.0179 11.8076ZM12.6178 26.3264C13.6583 26.3264 14.5994 26.095 15.4411 25.6321C16.2827 25.1691 16.956 24.5519 17.461 23.7804C17.9659 22.9948 18.2184 22.1251 18.2184 21.1712C18.2184 20.2313 17.9659 19.3756 17.461 18.6041C16.956 17.8326 16.2827 17.2153 15.4411 16.7524C14.5994 16.2895 13.6583 16.0581 12.6178 16.0581C11.5925 16.0581 10.6514 16.2895 9.7945 16.7524C8.95287 17.2153 8.27957 17.8326 7.7746 18.6041C7.26962 19.3756 7.01713 20.2313 7.01713 21.1712C7.01713 22.1251 7.26962 22.9948 7.7746 23.7804C8.27957 24.5519 8.95287 25.1691 9.7945 25.6321C10.6514 26.095 11.5925 26.3264 12.6178 26.3264Z"/>
<path fill-rule="evenodd" clip-rule="evenodd" d="M10.4831 12.8177C10.6944 12.5998 11.0366 12.3976 11.5098 12.2111C11.5851 12.1814 11.6636 12.1521 11.7455 12.1232C12.3423 11.9128 13.0998 11.8076 14.0179 11.8076C15.6553 11.8076 17.2008 12.1864 18.6546 12.9439C20.1236 13.7014 21.3171 14.7745 22.2353 16.1633C23.1687 17.538 23.6354 19.1652 23.6354 21.045C23.6354 22.9107 23.1381 24.5659 22.1435 26.0108C21.1488 27.4557 19.8175 28.5919 18.1496 29.4195C16.4816 30.2472 14.6377 30.661 12.6178 30.661C10.5673 30.661 8.70803 30.2612 7.04008 29.4616C5.37213 28.662 4.04082 27.5258 3.04617 26.0529C2.06682 24.566 1.57716 22.8125 1.57716 20.7925C1.57716 18.5901 1.97501 16.7384 2.77073 15.2374C3.56645 13.7224 4.48459 12.3828 5.52515 11.2184L13.3294 2.38094H20.0777L10.4831 12.8177ZM5.2471 11.0109L5.24777 11.0101L13.1583 2.05216H20.849L11.9734 11.7068C12.5548 11.5522 13.2389 11.4789 14.018 11.4789C15.7186 11.4789 17.3248 11.8729 18.8311 12.6577C20.3558 13.4441 21.5928 14.5577 22.541 15.9913C23.5144 17.4257 23.9941 19.1147 23.9941 21.045C23.9941 22.9669 23.4809 24.6841 22.4468 26.1863C21.4187 27.6797 20.0414 28.8548 18.3203 29.7087C16.5965 30.5641 14.6933 30.9898 12.6178 30.9898C10.5147 30.9898 8.59766 30.5794 6.87393 29.753C5.14876 28.926 3.76963 27.7488 2.74128 26.226L2.73918 26.2229C1.72088 24.6768 1.21855 22.8625 1.21855 20.7925C1.21855 18.5558 1.62233 16.6518 2.44796 15.0942C3.25436 13.559 4.18697 12.1972 5.2471 11.0109ZM12.6178 25.9977C13.5974 25.9977 14.4741 25.7806 15.2566 25.3502C16.0473 24.9152 16.6782 24.3371 17.1528 23.6123C17.6232 22.88 17.8598 22.0688 17.8598 21.1712C17.8598 20.2882 17.6235 19.4914 17.1535 18.7733C16.6788 18.048 16.0477 17.4695 15.2566 17.0344C14.4741 16.604 13.5974 16.3869 12.6178 16.3869C11.6551 16.3869 10.7776 16.6033 9.97791 17.035C9.1873 17.4701 8.55663 18.0484 8.08218 18.7733C7.61217 19.4914 7.37582 20.2882 7.37582 21.1712C7.37582 22.0688 7.61244 22.88 8.08288 23.6123C8.55726 24.3367 9.1877 24.9147 9.97791 25.3495C10.7776 25.7812 11.6551 25.9977 12.6178 25.9977ZM9.7945 25.6321C8.95287 25.1691 8.27957 24.5519 7.7746 23.7804C7.26962 22.9948 7.01713 22.1251 7.01713 21.1712C7.01713 20.2313 7.26962 19.3756 7.7746 18.6041C8.27957 17.8326 8.95287 17.2153 9.7945 16.7524C10.6514 16.2895 11.5925 16.0581 12.6178 16.0581C13.6583 16.0581 14.5994 16.2895 15.4411 16.7524C16.2827 17.2153 16.956 17.8326 17.461 18.6041C17.9659 19.3756 18.2184 20.2313 18.2184 21.1712C18.2184 22.1251 17.9659 22.9948 17.461 23.7804C16.956 24.5519 16.2827 25.1691 15.4411 25.6321C14.5994 26.095 13.6583 26.3264 12.6178 26.3264C11.5925 26.3264 10.6514 26.095 9.7945 25.6321Z"/>
<path d="M14.0179 11.8076C15.6553 11.8076 17.2008 12.1864 18.6546 12.9439C20.1236 13.7014 21.3171 14.7745 22.2353 16.1633C23.1687 17.538 23.6354 19.1652 23.6354 21.045C23.6354 22.9107 23.1381 24.5659 22.1435 26.0108C21.1488 27.4557 19.8175 28.5919 18.1496 29.4195C16.4816 30.2472 14.6377 30.661 12.6178 30.661C10.5673 30.661 8.70803 30.2612 7.04008 29.4616C5.37213 28.662 4.04082 27.5258 3.04617 26.0529C2.06682 24.566 1.57716 22.8125 1.57716 20.7925C1.57716 18.5901 1.97501 16.7384 2.77073 15.2374C3.56645 13.7224 4.48459 12.3828 5.52515 11.2184L10.4831 12.8177C10.728 12.5652 11.1488 12.3337 11.7455 12.1232C12.3423 11.9128 13.0998 11.8076 14.0179 11.8076ZM12.6178 26.3264C13.6583 26.3264 14.5994 26.095 15.4411 25.6321C16.2827 25.1691 16.956 24.5519 17.461 23.7804C17.9659 22.9948 18.2184 22.1251 18.2184 21.1712C18.2184 20.2313 17.9659 19.3756 17.461 18.6041C16.956 17.8326 16.2827 17.2153 15.4411 16.7524C14.5994 16.2895 13.6583 16.0581 12.6178 16.0581C11.5925 16.0581 10.6514 16.2895 9.7945 16.7524C8.95287 17.2153 8.27957 17.8326 7.7746 18.6041C7.26962 19.3756 7.01713 20.2313 7.01713 21.1712C7.01713 22.1251 7.26962 22.9948 7.7746 23.7804C8.27957 24.5519 8.95287 25.1691 9.7945 25.6321C10.6514 26.095 11.5925 26.3264 12.6178 26.3264Z"/>
<path fill-rule="evenodd" clip-rule="evenodd" d="M10.4831 12.8177C10.6944 12.5998 11.0366 12.3976 11.5098 12.2111C11.5851 12.1814 11.6636 12.1521 11.7455 12.1232C12.3423 11.9128 13.0998 11.8076 14.0179 11.8076C15.6553 11.8076 17.2008 12.1864 18.6546 12.9439C20.1236 13.7014 21.3171 14.7745 22.2353 16.1633C23.1687 17.538 23.6354 19.1652 23.6354 21.045C23.6354 22.9107 23.1381 24.5659 22.1435 26.0108C21.1488 27.4557 19.8175 28.5919 18.1496 29.4195C16.4816 30.2472 14.6377 30.661 12.6178 30.661C10.5673 30.661 8.70803 30.2612 7.04008 29.4616C5.37213 28.662 4.04082 27.5258 3.04617 26.0529C2.06682 24.566 1.57716 22.8125 1.57716 20.7925C1.57716 18.5901 1.97501 16.7384 2.77073 15.2374C3.56645 13.7224 4.48459 12.3828 5.52515 11.2184L13.3294 2.38094H20.0777L10.4831 12.8177ZM5.2471 11.0109L5.24777 11.0101L13.1583 2.05216H20.849L11.9734 11.7068C12.5548 11.5522 13.2389 11.4789 14.018 11.4789C15.7186 11.4789 17.3248 11.8729 18.8311 12.6577C20.3558 13.4441 21.5928 14.5577 22.541 15.9913C23.5144 17.4257 23.9941 19.1147 23.9941 21.045C23.9941 22.9669 23.4809 24.6841 22.4468 26.1863C21.4187 27.6797 20.0414 28.8548 18.3203 29.7087C16.5965 30.5641 14.6933 30.9898 12.6178 30.9898C10.5147 30.9898 8.59766 30.5794 6.87393 29.753C5.14876 28.926 3.76963 27.7488 2.74128 26.226L2.73918 26.2229C1.72088 24.6768 1.21855 22.8625 1.21855 20.7925C1.21855 18.5558 1.62233 16.6518 2.44796 15.0942C3.25436 13.559 4.18697 12.1972 5.2471 11.0109ZM12.6178 25.9977C13.5974 25.9977 14.4741 25.7806 15.2566 25.3502C16.0473 24.9152 16.6782 24.3371 17.1528 23.6123C17.6232 22.88 17.8598 22.0688 17.8598 21.1712C17.8598 20.2882 17.6235 19.4914 17.1535 18.7733C16.6788 18.048 16.0477 17.4695 15.2566 17.0344C14.4741 16.604 13.5974 16.3869 12.6178 16.3869C11.6551 16.3869 10.7776 16.6033 9.97791 17.035C9.1873 17.4701 8.55663 18.0484 8.08218 18.7733C7.61217 19.4914 7.37582 20.2882 7.37582 21.1712C7.37582 22.0688 7.61244 22.88 8.08288 23.6123C8.55726 24.3367 9.1877 24.9147 9.97791 25.3495C10.7776 25.7812 11.6551 25.9977 12.6178 25.9977ZM9.7945 25.6321C8.95287 25.1691 8.27957 24.5519 7.7746 23.7804C7.26962 22.9948 7.01713 22.1251 7.01713 21.1712C7.01713 20.2313 7.26962 19.3756 7.7746 18.6041C8.27957 17.8326 8.95287 17.2153 9.7945 16.7524C10.6514 16.2895 11.5925 16.0581 12.6178 16.0581C13.6583 16.0581 14.5994 16.2895 15.4411 16.7524C16.2827 17.2153 16.956 17.8326 17.461 18.6041C17.9659 19.3756 18.2184 20.2313 18.2184 21.1712C18.2184 22.1251 17.9659 22.9948 17.461 23.7804C16.956 24.5519 16.2827 25.1691 15.4411 25.6321C14.5994 26.095 13.6583 26.3264 12.6178 26.3264C11.5925 26.3264 10.6514 26.095 9.7945 25.6321Z"/>
</mask>
<path d="M14.0179 11.8076C15.6553 11.8076 17.2008 12.1864 18.6546 12.9439C20.1236 13.7014 21.3171 14.7745 22.2353 16.1633C23.1687 17.538 23.6354 19.1652 23.6354 21.045C23.6354 22.9107 23.1381 24.5659 22.1435 26.0108C21.1488 27.4557 19.8175 28.5919 18.1496 29.4195C16.4816 30.2472 14.6377 30.661 12.6178 30.661C10.5673 30.661 8.70803 30.2612 7.04008 29.4616C5.37213 28.662 4.04082 27.5258 3.04617 26.0529C2.06682 24.566 1.57716 22.8125 1.57716 20.7925C1.57716 18.5901 1.97501 16.7384 2.77073 15.2374C3.56645 13.7224 4.48459 12.3828 5.52515 11.2184L10.4831 12.8177C10.728 12.5652 11.1488 12.3337 11.7455 12.1232C12.3423 11.9128 13.0998 11.8076 14.0179 11.8076ZM12.6178 26.3264C13.6583 26.3264 14.5994 26.095 15.4411 25.6321C16.2827 25.1691 16.956 24.5519 17.461 23.7804C17.9659 22.9948 18.2184 22.1251 18.2184 21.1712C18.2184 20.2313 17.9659 19.3756 17.461 18.6041C16.956 17.8326 16.2827 17.2153 15.4411 16.7524C14.5994 16.2895 13.6583 16.0581 12.6178 16.0581C11.5925 16.0581 10.6514 16.2895 9.7945 16.7524C8.95287 17.2153 8.27957 17.8326 7.7746 18.6041C7.26962 19.3756 7.01713 20.2313 7.01713 21.1712C7.01713 22.1251 7.26962 22.9948 7.7746 23.7804C8.27957 24.5519 8.95287 25.1691 9.7945 25.6321C10.6514 26.095 11.5925 26.3264 12.6178 26.3264Z" fill="white"/>
<path fill-rule="evenodd" clip-rule="evenodd" d="M10.4831 12.8177C10.6944 12.5998 11.0366 12.3976 11.5098 12.2111C11.5851 12.1814 11.6636 12.1521 11.7455 12.1232C12.3423 11.9128 13.0998 11.8076 14.0179 11.8076C15.6553 11.8076 17.2008 12.1864 18.6546 12.9439C20.1236 13.7014 21.3171 14.7745 22.2353 16.1633C23.1687 17.538 23.6354 19.1652 23.6354 21.045C23.6354 22.9107 23.1381 24.5659 22.1435 26.0108C21.1488 27.4557 19.8175 28.5919 18.1496 29.4195C16.4816 30.2472 14.6377 30.661 12.6178 30.661C10.5673 30.661 8.70803 30.2612 7.04008 29.4616C5.37213 28.662 4.04082 27.5258 3.04617 26.0529C2.06682 24.566 1.57716 22.8125 1.57716 20.7925C1.57716 18.5901 1.97501 16.7384 2.77073 15.2374C3.56645 13.7224 4.48459 12.3828 5.52515 11.2184L13.3294 2.38094H20.0777L10.4831 12.8177ZM5.2471 11.0109L5.24777 11.0101L13.1583 2.05216H20.849L11.9734 11.7068C12.5548 11.5522 13.2389 11.4789 14.018 11.4789C15.7186 11.4789 17.3248 11.8729 18.8311 12.6577C20.3558 13.4441 21.5928 14.5577 22.541 15.9913C23.5144 17.4257 23.9941 19.1147 23.9941 21.045C23.9941 22.9669 23.4809 24.6841 22.4468 26.1863C21.4187 27.6797 20.0414 28.8548 18.3203 29.7087C16.5965 30.5641 14.6933 30.9898 12.6178 30.9898C10.5147 30.9898 8.59766 30.5794 6.87393 29.753C5.14876 28.926 3.76963 27.7488 2.74128 26.226L2.73918 26.2229C1.72088 24.6768 1.21855 22.8625 1.21855 20.7925C1.21855 18.5558 1.62233 16.6518 2.44796 15.0942C3.25436 13.559 4.18697 12.1972 5.2471 11.0109ZM12.6178 25.9977C13.5974 25.9977 14.4741 25.7806 15.2566 25.3502C16.0473 24.9152 16.6782 24.3371 17.1528 23.6123C17.6232 22.88 17.8598 22.0688 17.8598 21.1712C17.8598 20.2882 17.6235 19.4914 17.1535 18.7733C16.6788 18.048 16.0477 17.4695 15.2566 17.0344C14.4741 16.604 13.5974 16.3869 12.6178 16.3869C11.6551 16.3869 10.7776 16.6033 9.97791 17.035C9.1873 17.4701 8.55663 18.0484 8.08218 18.7733C7.61217 19.4914 7.37582 20.2882 7.37582 21.1712C7.37582 22.0688 7.61244 22.88 8.08288 23.6123C8.55726 24.3367 9.1877 24.9147 9.97791 25.3495C10.7776 25.7812 11.6551 25.9977 12.6178 25.9977ZM9.7945 25.6321C8.95287 25.1691 8.27957 24.5519 7.7746 23.7804C7.26962 22.9948 7.01713 22.1251 7.01713 21.1712C7.01713 20.2313 7.26962 19.3756 7.7746 18.6041C8.27957 17.8326 8.95287 17.2153 9.7945 16.7524C10.6514 16.2895 11.5925 16.0581 12.6178 16.0581C13.6583 16.0581 14.5994 16.2895 15.4411 16.7524C16.2827 17.2153 16.956 17.8326 17.461 18.6041C17.9659 19.3756 18.2184 20.2313 18.2184 21.1712C18.2184 22.1251 17.9659 22.9948 17.461 23.7804C16.956 24.5519 16.2827 25.1691 15.4411 25.6321C14.5994 26.095 13.6583 26.3264 12.6178 26.3264C11.5925 26.3264 10.6514 26.095 9.7945 25.6321Z" fill="white"/>
<path d="M68.6857 2.38093H74.447L86.1073 30.1561H80.0017L77.6375 24.1592H65.5181L63.108 30.1561H56.9794L68.6857 2.38093ZM67.4003 19.5089H75.7553L71.6007 8.73555H71.5319L67.4003 19.5089Z" fill="white"/>
<path d="M35.1894 2.38093H40.9278V25.5058H52.2897V30.1561H35.1894V2.38093Z" fill="white"/>
<path d="M132.364 15.9318L144.208 30.1561H137.345L127.269 17.7414V30.1561H121.53V2.38093H127.269V14.2695L136.611 2.38093H143.107L132.364 15.9318Z" fill="white"/>
<path d="M106.179 25.4637C107.77 25.4637 109.186 25.2603 110.425 24.8535C111.665 24.4327 112.575 24.0189 113.157 23.6121L115.613 28.094C114.909 28.6551 113.692 29.2232 111.963 29.7984C110.249 30.3735 108.199 30.6611 105.811 30.6611C103.577 30.6611 101.489 30.3034 99.5452 29.5879C97.6018 28.8585 95.8956 27.8485 94.4265 26.5579C92.9575 25.2533 91.8098 23.7313 90.9835 21.9919C90.1572 20.2384 89.744 18.3446 89.744 16.3106C89.744 14.2765 90.1495 12.3828 90.9606 10.6293C91.7869 8.8618 92.9346 7.32575 94.4036 6.02116C95.8726 4.71657 97.5788 3.69955 99.5222 2.9701C101.481 2.24065 103.577 1.87593 105.811 1.87593C108.199 1.87593 110.249 2.1635 111.963 2.73864C113.692 3.31378 114.909 3.88191 115.613 4.44303L113.157 8.92492C112.575 8.51811 111.665 8.11131 110.425 7.7045C109.186 7.28367 107.77 7.07325 106.179 7.07325C104.557 7.07325 103.111 7.31172 101.841 7.78867C100.586 8.26561 99.5146 8.93194 98.627 9.78763C97.7548 10.6293 97.0891 11.6042 96.6301 12.7124C96.171 13.8206 95.9415 14.999 95.9415 16.2475C95.9415 17.51 96.171 18.7023 96.6301 19.8246C97.0891 20.9328 97.7548 21.9147 98.627 22.7704C99.5146 23.6121 100.586 24.2714 101.841 24.7483C103.111 25.2253 104.557 25.4637 106.179 25.4637Z" fill="white"/>
<path d="M154.972 7.03116H147.374V2.38093H168.285V7.03116H160.71V30.1561H154.972V7.03116Z" fill="white"/>
<path d="M220.306 25.4637C221.898 25.4637 223.313 25.2603 224.553 24.8535C225.792 24.4327 226.703 24.0189 227.284 23.6121L229.74 28.094C229.036 28.6551 227.82 29.2232 226.091 29.7984C224.377 30.3735 222.326 30.6611 219.939 30.6611C217.705 30.6611 215.616 30.3034 213.673 29.5879C211.729 28.8585 210.023 27.8485 208.554 26.5579C207.085 25.2533 205.937 23.7313 205.111 21.9919C204.285 20.2384 203.872 18.3446 203.872 16.3106C203.872 14.2765 204.277 12.3828 205.088 10.6293C205.915 8.8618 207.062 7.32575 208.531 6.02116C210 4.71657 211.706 3.69955 213.65 2.9701C215.609 2.24065 217.705 1.87593 219.939 1.87593C222.326 1.87593 224.377 2.1635 226.091 2.73864C227.82 3.31378 229.036 3.88191 229.74 4.44303L227.284 8.92492C226.703 8.51811 225.792 8.11131 224.553 7.7045C223.313 7.28367 221.898 7.07325 220.306 7.07325C218.684 7.07325 217.238 7.31172 215.968 7.78867C214.713 8.26561 213.642 8.93194 212.755 9.78763C211.882 10.6293 211.217 11.6042 210.758 12.7124C210.299 13.8206 210.069 14.999 210.069 16.2475C210.069 17.51 210.299 18.7023 210.758 19.8246C211.217 20.9328 211.882 21.9147 212.755 22.7704C213.642 23.6121 214.713 24.2714 215.968 24.7483C217.238 25.2253 218.684 25.4637 220.306 25.4637Z" fill="white"/>
<path d="M253.699 18.541H241.672V30.1561H235.979V2.38093H241.672V13.9118H253.699V2.38093H259.392V30.1561H253.699V18.541Z" fill="white"/>
<path d="M14.0179 11.8076C15.6553 11.8076 17.2008 12.1864 18.6546 12.9439C20.1236 13.7014 21.3171 14.7745 22.2353 16.1633C23.1687 17.538 23.6354 19.1652 23.6354 21.045C23.6354 22.9107 23.1381 24.5659 22.1435 26.0108C21.1488 27.4557 19.8175 28.5919 18.1496 29.4195C16.4816 30.2472 14.6377 30.661 12.6178 30.661C10.5673 30.661 8.70803 30.2612 7.04008 29.4616C5.37213 28.662 4.04082 27.5258 3.04617 26.0529C2.06682 24.566 1.57716 22.8125 1.57716 20.7925C1.57716 18.5901 1.97501 16.7384 2.77073 15.2374C3.56645 13.7224 4.48459 12.3828 5.52515 11.2184L10.4831 12.8177C10.728 12.5652 11.1488 12.3337 11.7455 12.1232C12.3423 11.9128 13.0998 11.8076 14.0179 11.8076ZM12.6178 26.3264C13.6583 26.3264 14.5994 26.095 15.4411 25.6321C16.2827 25.1691 16.956 24.5519 17.461 23.7804C17.9659 22.9948 18.2184 22.1251 18.2184 21.1712C18.2184 20.2313 17.9659 19.3756 17.461 18.6041C16.956 17.8326 16.2827 17.2153 15.4411 16.7524C14.5994 16.2895 13.6583 16.0581 12.6178 16.0581C11.5925 16.0581 10.6514 16.2895 9.7945 16.7524C8.95287 17.2153 8.27957 17.8326 7.7746 18.6041C7.26962 19.3756 7.01713 20.2313 7.01713 21.1712C7.01713 22.1251 7.26962 22.9948 7.7746 23.7804C8.27957 24.5519 8.95287 25.1691 9.7945 25.6321C10.6514 26.095 11.5925 26.3264 12.6178 26.3264Z" fill="white"/>
<path fill-rule="evenodd" clip-rule="evenodd" d="M10.4831 12.8177C10.6944 12.5998 11.0366 12.3976 11.5098 12.2111C11.5851 12.1814 11.6636 12.1521 11.7455 12.1232C12.3423 11.9128 13.0998 11.8076 14.0179 11.8076C15.6553 11.8076 17.2008 12.1864 18.6546 12.9439C20.1236 13.7014 21.3171 14.7745 22.2353 16.1633C23.1687 17.538 23.6354 19.1652 23.6354 21.045C23.6354 22.9107 23.1381 24.5659 22.1435 26.0108C21.1488 27.4557 19.8175 28.5919 18.1496 29.4195C16.4816 30.2472 14.6377 30.661 12.6178 30.661C10.5673 30.661 8.70803 30.2612 7.04008 29.4616C5.37213 28.662 4.04082 27.5258 3.04617 26.0529C2.06682 24.566 1.57716 22.8125 1.57716 20.7925C1.57716 18.5901 1.97501 16.7384 2.77073 15.2374C3.56645 13.7224 4.48459 12.3828 5.52515 11.2184L13.3294 2.38094H20.0777L10.4831 12.8177ZM5.2471 11.0109L5.24777 11.0101L13.1583 2.05216H20.849L11.9734 11.7068C12.5548 11.5522 13.2389 11.4789 14.018 11.4789C15.7186 11.4789 17.3248 11.8729 18.8311 12.6577C20.3558 13.4441 21.5928 14.5577 22.541 15.9913C23.5144 17.4257 23.9941 19.1147 23.9941 21.045C23.9941 22.9669 23.4809 24.6841 22.4468 26.1863C21.4187 27.6797 20.0414 28.8548 18.3203 29.7087C16.5965 30.5641 14.6933 30.9898 12.6178 30.9898C10.5147 30.9898 8.59766 30.5794 6.87393 29.753C5.14876 28.926 3.76963 27.7488 2.74128 26.226L2.73918 26.2229C1.72088 24.6768 1.21855 22.8625 1.21855 20.7925C1.21855 18.5558 1.62233 16.6518 2.44796 15.0942C3.25436 13.559 4.18697 12.1972 5.2471 11.0109ZM12.6178 25.9977C13.5974 25.9977 14.4741 25.7806 15.2566 25.3502C16.0473 24.9152 16.6782 24.3371 17.1528 23.6123C17.6232 22.88 17.8598 22.0688 17.8598 21.1712C17.8598 20.2882 17.6235 19.4914 17.1535 18.7733C16.6788 18.048 16.0477 17.4695 15.2566 17.0344C14.4741 16.604 13.5974 16.3869 12.6178 16.3869C11.6551 16.3869 10.7776 16.6033 9.97791 17.035C9.1873 17.4701 8.55663 18.0484 8.08218 18.7733C7.61217 19.4914 7.37582 20.2882 7.37582 21.1712C7.37582 22.0688 7.61244 22.88 8.08288 23.6123C8.55726 24.3367 9.1877 24.9147 9.97791 25.3495C10.7776 25.7812 11.6551 25.9977 12.6178 25.9977ZM9.7945 25.6321C8.95287 25.1691 8.27957 24.5519 7.7746 23.7804C7.26962 22.9948 7.01713 22.1251 7.01713 21.1712C7.01713 20.2313 7.26962 19.3756 7.7746 18.6041C8.27957 17.8326 8.95287 17.2153 9.7945 16.7524C10.6514 16.2895 11.5925 16.0581 12.6178 16.0581C13.6583 16.0581 14.5994 16.2895 15.4411 16.7524C16.2827 17.2153 16.956 17.8326 17.461 18.6041C17.9659 19.3756 18.2184 20.2313 18.2184 21.1712C18.2184 22.1251 17.9659 22.9948 17.461 23.7804C16.956 24.5519 16.2827 25.1691 15.4411 25.6321C14.5994 26.095 13.6583 26.3264 12.6178 26.3264C11.5925 26.3264 10.6514 26.095 9.7945 25.6321Z" fill="white"/>
<path d="M14.0179 11.8076C15.6553 11.8076 17.2008 12.1864 18.6546 12.9439C20.1236 13.7014 21.3171 14.7745 22.2353 16.1633C23.1687 17.538 23.6354 19.1652 23.6354 21.045C23.6354 22.9107 23.1381 24.5659 22.1435 26.0108C21.1488 27.4557 19.8175 28.5919 18.1496 29.4195C16.4816 30.2472 14.6377 30.661 12.6178 30.661C10.5673 30.661 8.70803 30.2612 7.04008 29.4616C5.37213 28.662 4.04082 27.5258 3.04617 26.0529C2.06682 24.566 1.57716 22.8125 1.57716 20.7925C1.57716 18.5901 1.97501 16.7384 2.77073 15.2374C3.56645 13.7224 4.48459 12.3828 5.52515 11.2184L10.4831 12.8177C10.728 12.5652 11.1488 12.3337 11.7455 12.1232C12.3423 11.9128 13.0998 11.8076 14.0179 11.8076ZM12.6178 26.3264C13.6583 26.3264 14.5994 26.095 15.4411 25.6321C16.2827 25.1691 16.956 24.5519 17.461 23.7804C17.9659 22.9948 18.2184 22.1251 18.2184 21.1712C18.2184 20.2313 17.9659 19.3756 17.461 18.6041C16.956 17.8326 16.2827 17.2153 15.4411 16.7524C14.5994 16.2895 13.6583 16.0581 12.6178 16.0581C11.5925 16.0581 10.6514 16.2895 9.7945 16.7524C8.95287 17.2153 8.27957 17.8326 7.7746 18.6041C7.26962 19.3756 7.01713 20.2313 7.01713 21.1712C7.01713 22.1251 7.26962 22.9948 7.7746 23.7804C8.27957 24.5519 8.95287 25.1691 9.7945 25.6321C10.6514 26.095 11.5925 26.3264 12.6178 26.3264Z" fill="white"/>
<path fill-rule="evenodd" clip-rule="evenodd" d="M10.4831 12.8177C10.6944 12.5998 11.0366 12.3976 11.5098 12.2111C11.5851 12.1814 11.6636 12.1521 11.7455 12.1232C12.3423 11.9128 13.0998 11.8076 14.0179 11.8076C15.6553 11.8076 17.2008 12.1864 18.6546 12.9439C20.1236 13.7014 21.3171 14.7745 22.2353 16.1633C23.1687 17.538 23.6354 19.1652 23.6354 21.045C23.6354 22.9107 23.1381 24.5659 22.1435 26.0108C21.1488 27.4557 19.8175 28.5919 18.1496 29.4195C16.4816 30.2472 14.6377 30.661 12.6178 30.661C10.5673 30.661 8.70803 30.2612 7.04008 29.4616C5.37213 28.662 4.04082 27.5258 3.04617 26.0529C2.06682 24.566 1.57716 22.8125 1.57716 20.7925C1.57716 18.5901 1.97501 16.7384 2.77073 15.2374C3.56645 13.7224 4.48459 12.3828 5.52515 11.2184L13.3294 2.38094H20.0777L10.4831 12.8177ZM5.2471 11.0109L5.24777 11.0101L13.1583 2.05216H20.849L11.9734 11.7068C12.5548 11.5522 13.2389 11.4789 14.018 11.4789C15.7186 11.4789 17.3248 11.8729 18.8311 12.6577C20.3558 13.4441 21.5928 14.5577 22.541 15.9913C23.5144 17.4257 23.9941 19.1147 23.9941 21.045C23.9941 22.9669 23.4809 24.6841 22.4468 26.1863C21.4187 27.6797 20.0414 28.8548 18.3203 29.7087C16.5965 30.5641 14.6933 30.9898 12.6178 30.9898C10.5147 30.9898 8.59766 30.5794 6.87393 29.753C5.14876 28.926 3.76963 27.7488 2.74128 26.226L2.73918 26.2229C1.72088 24.6768 1.21855 22.8625 1.21855 20.7925C1.21855 18.5558 1.62233 16.6518 2.44796 15.0942C3.25436 13.559 4.18697 12.1972 5.2471 11.0109ZM12.6178 25.9977C13.5974 25.9977 14.4741 25.7806 15.2566 25.3502C16.0473 24.9152 16.6782 24.3371 17.1528 23.6123C17.6232 22.88 17.8598 22.0688 17.8598 21.1712C17.8598 20.2882 17.6235 19.4914 17.1535 18.7733C16.6788 18.048 16.0477 17.4695 15.2566 17.0344C14.4741 16.604 13.5974 16.3869 12.6178 16.3869C11.6551 16.3869 10.7776 16.6033 9.97791 17.035C9.1873 17.4701 8.55663 18.0484 8.08218 18.7733C7.61217 19.4914 7.37582 20.2882 7.37582 21.1712C7.37582 22.0688 7.61244 22.88 8.08288 23.6123C8.55726 24.3367 9.1877 24.9147 9.97791 25.3495C10.7776 25.7812 11.6551 25.9977 12.6178 25.9977ZM9.7945 25.6321C8.95287 25.1691 8.27957 24.5519 7.7746 23.7804C7.26962 22.9948 7.01713 22.1251 7.01713 21.1712C7.01713 20.2313 7.26962 19.3756 7.7746 18.6041C8.27957 17.8326 8.95287 17.2153 9.7945 16.7524C10.6514 16.2895 11.5925 16.0581 12.6178 16.0581C13.6583 16.0581 14.5994 16.2895 15.4411 16.7524C16.2827 17.2153 16.956 17.8326 17.461 18.6041C17.9659 19.3756 18.2184 20.2313 18.2184 21.1712C18.2184 22.1251 17.9659 22.9948 17.461 23.7804C16.956 24.5519 16.2827 25.1691 15.4411 25.6321C14.5994 26.095 13.6583 26.3264 12.6178 26.3264C11.5925 26.3264 10.6514 26.095 9.7945 25.6321Z" fill="white"/>
<path d="M18.6546 12.9439L18.4235 13.3873L18.4254 13.3883L18.6546 12.9439ZM22.2353 16.1633L21.8182 16.439L21.8216 16.4441L22.2353 16.1633ZM18.1496 29.4195L18.3718 29.8674L18.1496 29.4195ZM3.04617 26.0529L2.62858 26.3279L2.6318 26.3327L3.04617 26.0529ZM2.77073 15.2374L3.2125 15.4716L3.21339 15.4699L2.77073 15.2374ZM10.4831 12.8177L10.3297 13.2935L10.6256 13.389L10.8421 13.1657L10.4831 12.8177ZM11.7455 12.1232L11.5793 11.6517L11.7455 12.1232ZM17.461 23.7804L17.8793 24.0542L17.8816 24.0508L17.461 23.7804ZM15.4411 16.7524L15.2001 17.1905L15.4411 16.7524ZM9.7945 16.7524L9.55685 16.3125L9.55353 16.3143L9.7945 16.7524ZM7.7746 18.6041L8.19296 18.8779L7.7746 18.6041ZM7.7746 23.7804L7.35399 24.0508L7.35624 24.0542L7.7746 23.7804ZM9.7945 25.6321L9.55353 26.0702L9.55686 26.072L9.7945 25.6321ZM11.5098 12.2111L11.6931 12.6763L11.6931 12.6763L11.5098 12.2111ZM13.3294 2.38094V1.88094H13.1039L12.9546 2.04998L13.3294 2.38094ZM20.0777 2.38094L20.4458 2.71933L21.2165 1.88094H20.0777V2.38094ZM5.2471 11.0109L5.61993 11.344L5.62022 11.3437L5.2471 11.0109ZM5.24777 11.0101L5.62089 11.343L5.62255 11.3411L5.24777 11.0101ZM13.1583 2.05216V1.55216H12.9328L12.7835 1.7212L13.1583 2.05216ZM20.849 2.05216L21.2171 2.39055L21.9878 1.55216H20.849V2.05216ZM11.9734 11.7068L11.6053 11.3684L10.4449 12.6306L12.1019 12.19L11.9734 11.7068ZM18.8311 12.6577L18.6001 13.1011L18.6019 13.1021L18.8311 12.6577ZM22.541 15.9913L22.1239 16.2671L22.1272 16.272L22.541 15.9913ZM22.4468 26.1863L22.035 25.9028L22.4468 26.1863ZM18.3203 29.7087L18.5426 30.1566L18.3203 29.7087ZM6.87393 29.753L7.09007 29.3022H7.09007L6.87393 29.753ZM2.74128 26.226L3.15564 25.9462L3.1556 25.9461L2.74128 26.226ZM2.73918 26.2229L2.32158 26.4979L2.32485 26.5028L2.73918 26.2229ZM2.44796 15.0942L2.88974 15.3284L2.89061 15.3267L2.44796 15.0942ZM15.2566 25.3502L15.0156 24.9121L15.2566 25.3502ZM17.1528 23.6123L17.5711 23.8862L17.5735 23.8825L17.1528 23.6123ZM17.1535 18.7733L16.7351 19.0471V19.0471L17.1535 18.7733ZM15.2566 17.0344L15.0156 17.4725L15.0156 17.4725L15.2566 17.0344ZM9.97791 17.035L9.74038 16.595L9.73685 16.597L9.97791 17.035ZM8.08218 18.7733L7.66382 18.4995H7.66382L8.08218 18.7733ZM8.08288 23.6123L7.66219 23.8826L7.66459 23.8863L8.08288 23.6123ZM9.97791 25.3495L9.73684 25.7876L9.74038 25.7895L9.97791 25.3495ZM14.0179 12.3076C15.5747 12.3076 17.041 12.6669 18.4235 13.3873L18.8856 12.5005C17.3606 11.7058 15.7358 11.3076 14.0179 11.3076V12.3076ZM18.4254 13.3883C19.8178 14.1063 20.9469 15.1211 21.8182 16.439L22.6524 15.8875C21.6874 14.4279 20.4293 13.2965 18.8837 12.4995L18.4254 13.3883ZM21.8216 16.4441C22.6916 17.7254 23.1354 19.2518 23.1354 21.045H24.1354C24.1354 19.0787 23.6458 17.3506 22.6489 15.8824L21.8216 16.4441ZM23.1354 21.045C23.1354 22.8162 22.6651 24.3713 21.7316 25.7273L22.5553 26.2943C23.6111 24.7606 24.1354 23.0051 24.1354 21.045H23.1354ZM21.7316 25.7273C20.7881 27.0978 19.524 28.1794 17.9273 28.9717L18.3718 29.8674C20.1111 29.0044 21.5095 27.8135 22.5553 26.2943L21.7316 25.7273ZM17.9273 28.9717C16.3342 29.7622 14.5672 30.161 12.6178 30.161V31.161C14.7081 31.161 16.6291 30.7322 18.3718 29.8674L17.9273 28.9717ZM12.6178 30.161C10.6339 30.161 8.84968 29.7746 7.25622 29.0108L6.82394 29.9125C8.56639 30.7478 10.5007 31.161 12.6178 31.161V30.161ZM7.25622 29.0108C5.66495 28.2479 4.40341 27.1693 3.46054 25.7731L2.6318 26.3327C3.67824 27.8823 5.0793 29.0761 6.82394 29.9125L7.25622 29.0108ZM3.46374 25.7779C2.54517 24.3832 2.07716 22.7283 2.07716 20.7925H1.07716C1.07716 22.8967 1.58848 24.7487 2.62861 26.3279L3.46374 25.7779ZM2.07716 20.7925C2.07716 18.6483 2.46467 16.8822 3.21249 15.4716L2.32897 15.0032C1.48535 16.5946 1.07716 18.5319 1.07716 20.7925H2.07716ZM3.21339 15.4699C3.99185 13.9878 4.8872 12.6826 5.89796 11.5516L5.15234 10.8853C4.08199 12.0829 3.14106 13.4571 2.32807 15.0049L3.21339 15.4699ZM5.37166 11.6943L10.3297 13.2935L10.6366 12.3418L5.67864 10.7426L5.37166 11.6943ZM10.8421 13.1657C11.0058 12.997 11.3386 12.7969 11.9118 12.5948L11.5793 11.6517C10.959 11.8704 10.4502 12.1334 10.1242 12.4696L10.8421 13.1657ZM11.9118 12.5948C12.437 12.4096 13.1332 12.3076 14.0179 12.3076V11.3076C13.0664 11.3076 12.2477 11.416 11.5793 11.6517L11.9118 12.5948ZM12.6178 26.8264C13.7354 26.8264 14.7605 26.577 15.682 26.0702L15.2001 25.194C14.4384 25.6129 13.5813 25.8264 12.6178 25.8264V26.8264ZM15.682 26.0702C16.5922 25.5695 17.3277 24.8971 17.8793 24.0542L17.0426 23.5066C16.5843 24.2068 15.9731 24.7688 15.2001 25.194L15.682 26.0702ZM17.8816 24.0508C18.4395 23.1827 18.7184 22.2188 18.7184 21.1712H17.7184C17.7184 22.0314 17.4923 22.8069 17.0404 23.51L17.8816 24.0508ZM18.7184 21.1712C18.7184 20.1361 18.4386 19.1849 17.8793 18.3303L17.0426 18.8779C17.4932 19.5664 17.7184 20.3266 17.7184 21.1712H18.7184ZM17.8793 18.3303C17.3277 17.4874 16.5922 16.815 15.682 16.3143L15.2001 17.1905C15.9731 17.6157 16.5843 18.1777 17.0426 18.8779L17.8793 18.3303ZM15.682 16.3143C14.7605 15.8075 13.7354 15.5581 12.6178 15.5581V16.5581C13.5813 16.5581 14.4384 16.7716 15.2001 17.1905L15.682 16.3143ZM12.6178 15.5581C11.5141 15.5581 10.4907 15.8081 9.55686 16.3125L10.0321 17.1923C10.8122 16.771 11.671 16.5581 12.6178 16.5581V15.5581ZM9.55353 16.3143C8.64332 16.815 7.90791 17.4874 7.35624 18.3303L8.19296 18.8779C8.65124 18.1777 9.26243 17.6157 10.0355 17.1905L9.55353 16.3143ZM7.35624 18.3303C6.79692 19.1849 6.51713 20.136 6.51713 21.1712H7.51713C7.51713 20.3266 7.74233 19.5664 8.19296 18.8779L7.35624 18.3303ZM6.51713 21.1712C6.51713 22.2188 6.79602 23.1827 7.354 24.0508L8.19519 23.51C7.74322 22.8069 7.51713 22.0314 7.51713 21.1712H6.51713ZM7.35624 24.0542C7.90791 24.8971 8.64332 25.5695 9.55353 26.0702L10.0355 25.194C9.26243 24.7688 8.65124 24.2068 8.19296 23.5066L7.35624 24.0542ZM9.55686 26.072C10.4907 26.5764 11.5141 26.8264 12.6178 26.8264V25.8264C11.671 25.8264 10.8122 25.6135 10.0321 25.1921L9.55686 26.072ZM10.8421 13.1657C10.9812 13.0223 11.2472 12.8521 11.6931 12.6763L11.3264 11.746C10.8259 11.9432 10.4075 12.1774 10.1242 12.4696L10.8421 13.1657ZM11.6931 12.6763C11.7625 12.6489 11.8354 12.6217 11.9118 12.5948L11.5793 11.6517C11.4919 11.6825 11.4076 11.714 11.3264 11.746L11.6931 12.6763ZM5.89993 11.5494L13.7042 2.71191L12.9546 2.04998L5.15037 10.8875L5.89993 11.5494ZM13.3294 2.88094H20.0777V1.88094H13.3294V2.88094ZM19.7096 2.04255L10.1151 12.4793L10.8512 13.1561L20.4458 2.71933L19.7096 2.04255ZM5.62022 11.3437L5.62089 11.343L4.87465 10.6773L4.87398 10.678L5.62022 11.3437ZM5.62255 11.3411L13.5331 2.38313L12.7835 1.7212L4.87298 10.6792L5.62255 11.3411ZM13.1583 2.55216H20.849V1.55216H13.1583V2.55216ZM20.4809 1.71377L11.6053 11.3684L12.3415 12.0452L21.2171 2.39055L20.4809 1.71377ZM12.1019 12.19C12.6294 12.0498 13.2678 11.9789 14.018 11.9789V10.9789C13.21 10.9789 12.4802 11.0547 11.8449 11.2236L12.1019 12.19ZM14.018 11.9789C15.638 11.9789 17.165 12.3535 18.6001 13.1011L19.0621 12.2143C17.4846 11.3924 15.7991 10.9789 14.018 10.9789V11.9789ZM18.6019 13.1021C20.0501 13.849 21.2226 14.9043 22.1239 16.2671L22.958 15.7154C21.963 14.2111 20.6616 13.0392 19.0603 12.2133L18.6019 13.1021ZM22.1272 16.272C23.0373 17.613 23.4941 19.2012 23.4941 21.045H24.4941C24.4941 19.0282 23.9915 17.2383 22.9547 15.7105L22.1272 16.272ZM23.4941 21.045C23.4941 22.8724 23.0079 24.4894 22.035 25.9028L22.8587 26.4698C23.9539 24.8788 24.4941 23.0613 24.4941 21.045H23.4941ZM22.035 25.9028C21.0581 27.3219 19.7478 28.4422 18.0981 29.2609L18.5426 30.1566C20.3349 29.2673 21.7794 28.0376 22.8587 26.4698L22.035 25.9028ZM18.0981 29.2609C16.4491 30.0791 14.6229 30.4898 12.6178 30.4898V31.4898C14.7638 31.4898 16.744 31.0491 18.5426 30.1566L18.0981 29.2609ZM12.6178 30.4898C10.5813 30.4898 8.73931 30.0928 7.09007 29.3022L6.65779 30.2039C8.45602 31.0659 10.4481 31.4898 12.6178 31.4898V30.4898ZM7.09007 29.3022C5.44159 28.5119 4.13222 27.3923 3.15564 25.9462L2.32691 26.5058C3.40704 28.1053 4.85593 29.3401 6.65779 30.2039L7.09007 29.3022ZM3.1556 25.9461L3.1535 25.943L2.32485 26.5028L2.32695 26.5059L3.1556 25.9461ZM3.15675 25.9478C2.19923 24.494 1.71855 22.7783 1.71855 20.7925H0.718552C0.718552 22.9467 1.24253 24.8595 2.32161 26.4979L3.15675 25.9478ZM1.71855 20.7925C1.71855 18.614 2.112 16.7957 2.88973 15.3284L2.00618 14.8601C1.13267 16.508 0.718552 18.4976 0.718552 20.7925H1.71855ZM2.89061 15.3267C3.67975 13.8244 4.58958 12.4971 5.61993 11.344L4.87427 10.6777C3.78436 11.8974 2.82896 13.2936 2.00531 14.8617L2.89061 15.3267ZM12.6178 26.4977C13.6745 26.4977 14.6352 26.2626 15.4975 25.7883L15.0156 24.9121C14.313 25.2985 13.5204 25.4977 12.6178 25.4977V26.4977ZM15.4975 25.7883C16.3569 25.3156 17.0498 24.6823 17.5711 23.8862L16.7345 23.3384C16.3066 23.9918 15.7378 24.5148 15.0156 24.9121L15.4975 25.7883ZM17.5735 23.8825C18.0968 23.0678 18.3598 22.1624 18.3598 21.1712H17.3598C17.3598 21.9751 17.1496 22.6922 16.7321 23.342L17.5735 23.8825ZM18.3598 21.1712C18.3598 20.1929 18.0962 19.3006 17.5718 18.4995L16.7351 19.0471C17.1508 19.6822 17.3598 20.3835 17.3598 21.1712H18.3598ZM17.5718 18.4995C17.0504 17.7029 16.3573 17.0692 15.4975 16.5963L15.0156 17.4725C15.7382 17.8699 16.3071 18.3932 16.7351 19.0471L17.5718 18.4995ZM15.4975 16.5963C14.6352 16.122 13.6745 15.8869 12.6178 15.8869V16.8869C13.5204 16.8869 14.313 17.086 15.0156 17.4725L15.4975 16.5963ZM12.6178 15.8869C11.5766 15.8869 10.6169 16.1219 9.74038 16.595L10.2154 17.475C10.9383 17.0848 11.7335 16.8869 12.6178 16.8869V15.8869ZM9.73685 16.597C8.87769 17.0698 8.18495 17.7033 7.66382 18.4995L8.50053 19.0471C8.92832 18.3935 9.49692 17.8704 10.219 17.4731L9.73685 16.597ZM7.66382 18.4995C7.13947 19.3006 6.87582 20.1929 6.87582 21.1712H7.87582C7.87582 20.3835 8.08487 19.6822 8.50053 19.0471L7.66382 18.4995ZM6.87582 21.1712C6.87582 22.1624 7.13882 23.0679 7.66221 23.8826L8.50356 23.3421C8.08607 22.6922 7.87582 21.9751 7.87582 21.1712H6.87582ZM7.66459 23.8863C8.18564 24.6819 8.87812 25.315 9.73685 25.7876L10.219 24.9115C9.49728 24.5143 8.92889 23.9916 8.50118 23.3384L7.66459 23.8863ZM9.74038 25.7895C10.6169 26.2627 11.5766 26.4977 12.6178 26.4977V25.4977C11.7335 25.4977 10.9383 25.2998 10.2154 24.9095L9.74038 25.7895ZM68.6857 2.38093V1.38093H68.0219L67.7642 1.99255L68.6857 2.38093ZM74.447 2.38093L75.369 1.99385L75.1117 1.38093H74.447V2.38093ZM86.1073 30.1561V31.1561H87.6117L87.0294 29.769L86.1073 30.1561ZM80.0017 30.1561L79.0714 30.5228L79.3211 31.1561H80.0017V30.1561ZM77.6375 24.1592L78.5678 23.7924L78.3182 23.1592H77.6375V24.1592ZM65.5181 24.1592V23.1592H64.8422L64.5902 23.7863L65.5181 24.1592ZM63.108 30.1561V31.1561H63.7838L64.0358 30.529L63.108 30.1561ZM56.9794 30.1561L56.0579 29.7677L55.4727 31.1561H56.9794V30.1561ZM67.4003 19.5089L66.4666 19.1509L65.9457 20.5089H67.4003V19.5089ZM75.7553 19.5089V20.5089H77.2127L76.6883 19.1491L75.7553 19.5089ZM71.6007 8.73555L72.5338 8.37574L72.2869 7.73555H71.6007V8.73555ZM71.5319 8.73555V7.73555H70.8444L70.5982 8.37747L71.5319 8.73555ZM35.1894 2.38093V1.38093H34.1894V2.38093H35.1894ZM40.9278 2.38093H41.9278V1.38093H40.9278V2.38093ZM40.9278 25.5058H39.9278V26.5058H40.9278V25.5058ZM52.2897 25.5058H53.2897V24.5058H52.2897V25.5058ZM52.2897 30.1561V31.1561H53.2897V30.1561H52.2897ZM35.1894 30.1561H34.1894V31.1561H35.1894V30.1561ZM175.295 6.70811H174.295V7.70811H175.295V6.70811ZM193.686 6.70811V7.70811H194.686V6.70811H193.686ZM175.295 2.76278V1.76278H174.295V2.76278H175.295ZM193.686 2.76278H194.686V1.76278H193.686V2.76278ZM175.295 18.33H174.295V19.33H175.295V18.33ZM193.686 18.33V19.33H194.686V18.33H193.686ZM175.295 14.3847V13.3847H174.295V14.3847H175.295ZM193.686 14.3847H194.686V13.3847H193.686V14.3847ZM175.295 30.2793H174.295V31.2793H175.295V30.2793ZM193.686 30.2793V31.2793H194.686V30.2793H193.686ZM175.295 26.3339V25.3339H174.295V26.3339H175.295ZM193.686 26.3339H194.686V25.3339H193.686V26.3339ZM132.364 15.9318L131.581 15.3106L131.076 15.9473L131.596 16.5717L132.364 15.9318ZM144.208 30.1561V31.1561H146.342L144.977 29.5162L144.208 30.1561ZM137.345 30.1561L136.569 30.7863L136.869 31.1561H137.345V30.1561ZM127.269 17.7414L128.045 17.1112L126.269 14.9226V17.7414H127.269ZM127.269 30.1561V31.1561H128.269V30.1561H127.269ZM121.53 30.1561H120.53V31.1561H121.53V30.1561ZM121.53 2.38093V1.38093H120.53V2.38093H121.53ZM127.269 2.38093H128.269V1.38093H127.269V2.38093ZM127.269 14.2695H126.269V17.1606L128.055 14.8874L127.269 14.2695ZM136.611 2.38093V1.38093H136.125L135.824 1.76307L136.611 2.38093ZM143.107 2.38093L143.89 3.00215L145.175 1.38093H143.107V2.38093ZM110.425 24.8535L110.737 25.8037L110.747 25.8004L110.425 24.8535ZM113.157 23.6121L114.034 23.1315L113.497 22.1532L112.583 22.7927L113.157 23.6121ZM115.613 28.094L116.236 28.8759L116.894 28.3514L116.49 27.6134L115.613 28.094ZM111.963 29.7984L111.647 28.8495L111.645 28.8503L111.963 29.7984ZM99.5452 29.5879L99.1937 30.5242L99.1997 30.5264L99.5452 29.5879ZM94.4265 26.5579L93.7625 27.3056L93.7665 27.3092L94.4265 26.5579ZM90.9835 21.9919L90.0789 22.4181L90.0803 22.4209L90.9835 21.9919ZM90.9606 10.6293L90.0547 10.2058L90.0529 10.2095L90.9606 10.6293ZM94.4036 6.02116L93.7396 5.27344V5.27344L94.4036 6.02116ZM99.5222 2.9701L99.1732 2.03298L99.1708 2.03388L99.5222 2.9701ZM111.963 2.73864L111.645 3.68669L111.647 3.68753L111.963 2.73864ZM115.613 4.44303L116.49 4.92359L116.894 4.18562L116.236 3.66107L115.613 4.44303ZM113.157 8.92492L112.583 9.74431L113.497 10.3838L114.034 9.40549L113.157 8.92492ZM110.425 7.7045L110.104 8.65146L110.113 8.65464L110.425 7.7045ZM101.841 7.78867L101.489 6.85249L101.485 6.85391L101.841 7.78867ZM98.627 9.78763L97.9329 9.06773L97.9326 9.06803L98.627 9.78763ZM96.6301 19.8246L95.7045 20.2032L95.7062 20.2073L96.6301 19.8246ZM98.627 22.7704L97.9267 23.4842L97.9328 23.4902L97.9389 23.496L98.627 22.7704ZM101.841 24.7483L101.485 25.6831L101.489 25.6845L101.841 24.7483ZM154.972 7.03116H155.972V6.03116H154.972V7.03116ZM147.374 7.03116H146.374V8.03116H147.374V7.03116ZM147.374 2.38093V1.38093H146.374V2.38093H147.374ZM168.285 2.38093H169.285V1.38093H168.285V2.38093ZM168.285 7.03116V8.03116H169.285V7.03116H168.285ZM160.71 7.03116V6.03116H159.71V7.03116H160.71ZM160.71 30.1561V31.1561H161.71V30.1561H160.71ZM154.972 30.1561H153.972V31.1561H154.972V30.1561ZM224.553 24.8535L224.865 25.8037L224.874 25.8004L224.553 24.8535ZM227.284 23.6121L228.161 23.1315L227.625 22.1532L226.711 22.7927L227.284 23.6121ZM229.74 28.094L230.364 28.8759L231.022 28.3514L230.617 27.6134L229.74 28.094ZM226.091 29.7984L225.775 28.8495L225.772 28.8503L226.091 29.7984ZM213.673 29.5879L213.321 30.5242L213.327 30.5264L213.673 29.5879ZM208.554 26.5579L207.89 27.3056L207.894 27.3092L208.554 26.5579ZM205.111 21.9919L204.207 22.4181L204.208 22.4209L205.111 21.9919ZM205.088 10.6293L204.182 10.2058L204.181 10.2095L205.088 10.6293ZM208.531 6.02116L207.867 5.27344V5.27344L208.531 6.02116ZM213.65 2.9701L213.301 2.03298L213.298 2.03388L213.65 2.9701ZM226.091 2.73864L225.772 3.68669L225.775 3.68753L226.091 2.73864ZM229.74 4.44303L230.617 4.92358L231.022 4.18561L230.364 3.66107L229.74 4.44303ZM227.284 8.92492L226.711 9.74431L227.625 10.3838L228.161 9.40548L227.284 8.92492ZM224.553 7.7045L224.231 8.65146L224.241 8.65464L224.553 7.7045ZM215.968 7.78867L215.617 6.85249L215.613 6.85391L215.968 7.78867ZM212.755 9.78763L212.061 9.06773L212.06 9.06803L212.755 9.78763ZM210.758 19.8246L209.832 20.2032L209.834 20.2073L210.758 19.8246ZM212.755 22.7704L212.054 23.4842L212.06 23.4902L212.067 23.496L212.755 22.7704ZM215.968 24.7483L215.613 25.6831L215.617 25.6845L215.968 24.7483ZM253.699 18.541H254.699V17.541H253.699V18.541ZM241.672 18.541V17.541H240.672V18.541H241.672ZM241.672 30.1561V31.1561H242.672V30.1561H241.672ZM235.979 30.1561H234.979V31.1561H235.979V30.1561ZM235.979 2.38093V1.38093H234.979V2.38093H235.979ZM241.672 2.38093H242.672V1.38093H241.672V2.38093ZM241.672 13.9118H240.672V14.9118H241.672V13.9118ZM253.699 13.9118V14.9118H254.699V13.9118H253.699ZM253.699 2.38093V1.38093H252.699V2.38093H253.699ZM259.392 2.38093H260.392V1.38093H259.392V2.38093ZM259.392 30.1561V31.1561H260.392V30.1561H259.392ZM253.699 30.1561H252.699V31.1561H253.699V30.1561ZM68.6857 3.38093H74.447V1.38093H68.6857V3.38093ZM73.5249 2.76802L85.1853 30.5431L87.0294 29.769L75.369 1.99385L73.5249 2.76802ZM86.1073 29.1561H80.0017V31.1561H86.1073V29.1561ZM80.932 29.7893L78.5678 23.7924L76.7072 24.5259L79.0714 30.5228L80.932 29.7893ZM77.6375 23.1592H65.5181V25.1592H77.6375V23.1592ZM64.5902 23.7863L62.1801 29.7832L64.0358 30.529L66.4459 24.5321L64.5902 23.7863ZM63.108 29.1561H56.9794V31.1561H63.108V29.1561ZM57.9009 30.5444L69.6072 2.76931L67.7642 1.99255L56.0579 29.7677L57.9009 30.5444ZM67.4003 20.5089H75.7553V18.5089H67.4003V20.5089ZM76.6883 19.1491L72.5338 8.37574L70.6677 9.09535L74.8223 19.8687L76.6883 19.1491ZM71.6007 7.73555H71.5319V9.73555H71.6007V7.73555ZM70.5982 8.37747L66.4666 19.1509L68.3339 19.867L72.4656 9.09362L70.5982 8.37747ZM35.1894 3.38093H40.9278V1.38093H35.1894V3.38093ZM39.9278 2.38093V25.5058H41.9278V2.38093H39.9278ZM40.9278 26.5058H52.2897V24.5058H40.9278V26.5058ZM51.2897 25.5058V30.1561H53.2897V25.5058H51.2897ZM52.2897 29.1561H35.1894V31.1561H52.2897V29.1561ZM36.1894 30.1561V2.38093H34.1894V30.1561H36.1894ZM175.295 7.70811H193.686V5.70811H175.295V7.70811ZM174.295 2.76278V6.70811H176.295V2.76278H174.295ZM193.686 1.76278H175.295V3.76278H193.686V1.76278ZM194.686 6.70811V2.76278H192.686V6.70811H194.686ZM175.295 19.33H193.686V17.33H175.295V19.33ZM174.295 14.3847V18.33H176.295V14.3847H174.295ZM193.686 13.3847H175.295V15.3847H193.686V13.3847ZM194.686 18.33V14.3847H192.686V18.33H194.686ZM175.295 31.2793H193.686V29.2793H175.295V31.2793ZM174.295 26.3339V30.2793H176.295V26.3339H174.295ZM193.686 25.3339H175.295V27.3339H193.686V25.3339ZM194.686 30.2793V26.3339H192.686V30.2793H194.686ZM131.596 16.5717L143.44 30.7959L144.977 29.5162L133.133 15.2919L131.596 16.5717ZM144.208 29.1561H137.345V31.1561H144.208V29.1561ZM138.122 29.5259L128.045 17.1112L126.492 18.3716L136.569 30.7863L138.122 29.5259ZM126.269 17.7414V30.1561H128.269V17.7414H126.269ZM127.269 29.1561H121.53V31.1561H127.269V29.1561ZM122.53 30.1561V2.38093H120.53V30.1561H122.53ZM121.53 3.38093H127.269V1.38093H121.53V3.38093ZM126.269 2.38093V14.2695H128.269V2.38093H126.269ZM128.055 14.8874L137.397 2.9988L135.824 1.76307L126.482 13.6517L128.055 14.8874ZM136.611 3.38093H143.107V1.38093H136.611V3.38093ZM142.323 1.75972L131.581 15.3106L133.148 16.553L143.89 3.00215L142.323 1.75972ZM106.179 26.4637C107.854 26.4637 109.377 26.2499 110.737 25.8037L110.113 23.9034C108.994 24.2708 107.687 24.4637 106.179 24.4637V26.4637ZM110.747 25.8004C112.014 25.3702 113.031 24.9203 113.73 24.4315L112.583 22.7927C112.119 23.1175 111.315 23.4952 110.104 23.9066L110.747 25.8004ZM112.28 24.0926L114.736 28.5745L116.49 27.6134L114.034 23.1315L112.28 24.0926ZM114.989 27.312C114.43 27.7577 113.355 28.2814 111.647 28.8495L112.279 30.7472C114.029 30.165 115.387 29.5525 116.236 28.8759L114.989 27.312ZM111.645 28.8503C110.06 29.382 108.123 29.6611 105.811 29.6611V31.6611C108.274 31.6611 110.438 31.365 112.281 30.7464L111.645 28.8503ZM105.811 29.6611C103.686 29.6611 101.715 29.3211 99.8906 28.6495L99.1997 30.5264C101.262 31.2856 103.469 31.6611 105.811 31.6611V29.6611ZM99.8966 28.6517C98.0593 27.9621 96.4592 27.0126 95.0865 25.8067L93.7665 27.3092C95.3319 28.6844 97.1442 29.7549 99.1937 30.5242L99.8966 28.6517ZM95.0906 25.8102C93.7198 24.5929 92.6544 23.1786 91.8868 21.5628L90.0803 22.4209C90.9653 24.2841 92.1953 25.9138 93.7625 27.3056L95.0906 25.8102ZM91.8881 21.5656C91.1277 19.952 90.744 18.2047 90.744 16.3106H88.744C88.744 18.4846 89.1867 20.5248 90.0789 22.4181L91.8881 21.5656ZM90.744 16.3106C90.744 14.4137 91.1212 12.6641 91.8682 11.0491L90.0529 10.2095C89.1779 12.1015 88.744 14.1394 88.744 16.3106H90.744ZM91.8665 11.0528C92.6347 9.40961 93.6997 7.98365 95.0676 6.76887L93.7396 5.27344C92.1694 6.66785 90.9391 8.31399 90.0547 10.2058L91.8665 11.0528ZM95.0676 6.76887C96.4398 5.5503 98.0385 4.59512 99.8736 3.90633L99.1708 2.03388C97.1191 2.80399 95.3055 3.88284 93.7396 5.27344L95.0676 6.76887ZM99.8712 3.90723C101.711 3.22215 103.688 2.87593 105.811 2.87593V0.875931C103.466 0.875931 101.251 1.25916 99.1732 2.03298L99.8712 3.90723ZM105.811 2.87593C108.123 2.87593 110.06 3.15498 111.645 3.68668L112.281 1.7906C110.438 1.17203 108.274 0.875931 105.811 0.875931V2.87593ZM111.647 3.68753C113.355 4.25559 114.43 4.77933 114.989 5.22498L116.236 3.66107C115.387 2.9845 114.029 2.37198 112.279 1.78975L111.647 3.68753ZM114.736 3.96246L112.28 8.44436L114.034 9.40549L116.49 4.92359L114.736 3.96246ZM113.73 8.10554C113.027 7.61387 112.005 7.17069 110.737 6.75437L110.113 8.65464C111.324 9.05192 112.123 9.42236 112.583 9.74431L113.73 8.10554ZM110.747 6.75759C109.384 6.29495 107.857 6.07325 106.179 6.07325V8.07325C107.684 8.07325 108.987 8.27238 110.104 8.65141L110.747 6.75759ZM106.179 6.07325C104.46 6.07325 102.891 6.32598 101.489 6.8525L102.192 8.72484C103.33 8.29746 104.654 8.07325 106.179 8.07325V6.07325ZM101.485 6.85391C100.115 7.37456 98.9261 8.11022 97.9329 9.06773L99.3211 10.5075C100.103 9.75365 101.056 9.15667 102.196 8.72342L101.485 6.85391ZM97.9326 9.06803C96.9627 10.004 96.2184 11.0933 95.7062 12.3297L97.5539 13.0951C97.9599 12.1152 98.5469 11.2546 99.3214 10.5072L97.9326 9.06803ZM95.7062 12.3297C95.1948 13.5642 94.9415 14.8731 94.9415 16.2475H96.9415C96.9415 15.1248 97.1472 14.0771 97.5539 13.0951L95.7062 12.3297ZM94.9415 16.2475C94.9415 17.6343 95.1943 18.9558 95.7045 20.2032L97.5556 19.4459C97.1477 18.4488 96.9415 17.3856 96.9415 16.2475H94.9415ZM95.7062 20.2073C96.2177 21.4421 96.9603 22.5361 97.9267 23.4842L99.3273 22.0566C98.5493 21.2933 97.9605 20.4234 97.5539 19.4418L95.7062 20.2073ZM97.9389 23.496C98.9314 24.4372 100.119 25.1637 101.485 25.6831L102.196 23.8136C101.053 23.379 100.098 22.7869 99.3151 22.0448L97.9389 23.496ZM101.489 25.6845C102.891 26.211 104.46 26.4637 106.179 26.4637V24.4637C104.654 24.4637 103.33 24.2395 102.192 23.8122L101.489 25.6845ZM154.972 6.03116H147.374V8.03116H154.972V6.03116ZM148.374 7.03116V2.38093H146.374V7.03116H148.374ZM147.374 3.38093H168.285V1.38093H147.374V3.38093ZM167.285 2.38093V7.03116H169.285V2.38093H167.285ZM168.285 6.03116H160.71V8.03116H168.285V6.03116ZM159.71 7.03116V30.1561H161.71V7.03116H159.71ZM160.71 29.1561H154.972V31.1561H160.71V29.1561ZM155.972 30.1561V7.03116H153.972V30.1561H155.972ZM220.306 26.4637C221.981 26.4637 223.505 26.2499 224.865 25.8037L224.241 23.9034C223.121 24.2708 221.814 24.4637 220.306 24.4637V26.4637ZM224.874 25.8004C226.141 25.3702 227.159 24.9203 227.857 24.4315L226.711 22.7927C226.247 23.1175 225.443 23.4952 224.231 23.9066L224.874 25.8004ZM226.407 24.0926L228.863 28.5745L230.617 27.6134L228.161 23.1315L226.407 24.0926ZM229.117 27.312C228.558 27.7577 227.483 28.2814 225.775 28.8495L226.406 30.7472C228.157 30.165 229.515 29.5525 230.364 28.8759L229.117 27.312ZM225.772 28.8503C224.188 29.382 222.251 29.6611 219.939 29.6611V31.6611C222.402 31.6611 224.565 31.365 226.409 30.7464L225.772 28.8503ZM219.939 29.6611C217.813 29.6611 215.843 29.3211 214.018 28.6495L213.327 30.5264C215.39 31.2856 217.596 31.6611 219.939 31.6611V29.6611ZM214.024 28.6517C212.187 27.9621 210.587 27.0126 209.214 25.8067L207.894 27.3092C209.459 28.6844 211.272 29.7549 213.321 30.5242L214.024 28.6517ZM209.218 25.8102C207.847 24.5928 206.782 23.1785 206.014 21.5628L204.208 22.4209C205.093 24.2841 206.323 25.9138 207.89 27.3056L209.218 25.8102ZM206.016 21.5656C205.255 19.952 204.872 18.2047 204.872 16.3106H202.872C202.872 18.4846 203.314 20.5248 204.207 22.4181L206.016 21.5656ZM204.872 16.3106C204.872 14.4137 205.249 12.6641 205.996 11.0491L204.181 10.2095C203.305 12.1015 202.872 14.1394 202.872 16.3106H204.872ZM205.994 11.0528C206.762 9.4096 207.827 7.98364 209.195 6.76887L207.867 5.27344C206.297 6.66785 205.067 8.31399 204.182 10.2058L205.994 11.0528ZM209.195 6.76887C210.567 5.55031 212.166 4.59512 214.001 3.90633L213.298 2.03388C211.247 2.80398 209.433 3.88283 207.867 5.27344L209.195 6.76887ZM213.999 3.90723C215.838 3.22215 217.816 2.87593 219.939 2.87593V0.875931C217.594 0.875931 215.379 1.25916 213.301 2.03298L213.999 3.90723ZM219.939 2.87593C222.251 2.87593 224.188 3.15498 225.772 3.68668L226.409 1.7906C224.565 1.17203 222.402 0.875931 219.939 0.875931V2.87593ZM225.775 3.68753C227.483 4.25559 228.558 4.77933 229.117 5.22498L230.364 3.66107C229.515 2.9845 228.157 2.37198 226.406 1.78975L225.775 3.68753ZM228.863 3.96247L226.407 8.44437L228.161 9.40548L230.617 4.92358L228.863 3.96247ZM227.857 8.10554C227.155 7.61387 226.133 7.17069 224.865 6.75437L224.241 8.65464C225.451 9.05192 226.251 9.42236 226.711 9.74431L227.857 8.10554ZM224.874 6.75759C223.512 6.29495 221.984 6.07325 220.306 6.07325V8.07325C221.811 8.07325 223.115 8.27238 224.231 8.65141L224.874 6.75759ZM220.306 6.07325C218.587 6.07325 217.019 6.32598 215.617 6.8525L216.32 8.72484C217.458 8.29746 218.781 8.07325 220.306 8.07325V6.07325ZM215.613 6.85391C214.243 7.37456 213.054 8.11022 212.061 9.06773L213.449 10.5075C214.231 9.75366 215.184 9.15667 216.323 8.72342L215.613 6.85391ZM212.06 9.06803C211.09 10.004 210.346 11.0933 209.834 12.3297L211.682 13.0951C212.088 12.1152 212.675 11.2546 213.449 10.5072L212.06 9.06803ZM209.834 12.3297C209.322 13.5642 209.069 14.8731 209.069 16.2475H211.069C211.069 15.1248 211.275 14.0771 211.682 13.0951L209.834 12.3297ZM209.069 16.2475C209.069 17.6343 209.322 18.9558 209.832 20.2032L211.683 19.4459C211.275 18.4488 211.069 17.3856 211.069 16.2475H209.069ZM209.834 20.2073C210.345 21.4421 211.088 22.5361 212.054 23.4842L213.455 22.0566C212.677 21.2933 212.088 20.4234 211.682 19.4418L209.834 20.2073ZM212.067 23.496C213.059 24.4372 214.246 25.1637 215.613 25.6831L216.323 23.8136C215.18 23.379 214.225 22.7869 213.443 22.0448L212.067 23.496ZM215.617 25.6845C217.019 26.211 218.587 26.4637 220.306 26.4637V24.4637C218.781 24.4637 217.458 24.2395 216.32 23.8122L215.617 25.6845ZM253.699 17.541H241.672V19.541H253.699V17.541ZM240.672 18.541V30.1561H242.672V18.541H240.672ZM241.672 29.1561H235.979V31.1561H241.672V29.1561ZM236.979 30.1561V2.38093H234.979V30.1561H236.979ZM235.979 3.38093H241.672V1.38093H235.979V3.38093ZM240.672 2.38093V13.9118H242.672V2.38093H240.672ZM241.672 14.9118H253.699V12.9118H241.672V14.9118ZM254.699 13.9118V2.38093H252.699V13.9118H254.699ZM253.699 3.38093H259.392V1.38093H253.699V3.38093ZM258.392 2.38093V30.1561H260.392V2.38093H258.392ZM259.392 29.1561H253.699V31.1561H259.392V29.1561ZM254.699 30.1561V18.541H252.699V30.1561H254.699Z" fill="white" mask="url(#path-1-outside-1_2_255)"/>
<path d="M1.64038 46.2446V41.3912H3.58363C3.94068 41.3912 4.23848 41.4441 4.47704 41.55C4.71561 41.6558 4.89492 41.8028 5.01499 41.9908C5.13506 42.1772 5.1951 42.392 5.1951 42.6354C5.1951 42.8249 5.15718 42.9916 5.08135 43.1354C5.00551 43.2776 4.90124 43.3945 4.76853 43.4861C4.6374 43.5762 4.48731 43.6401 4.31827 43.6781V43.7255C4.50311 43.7334 4.67611 43.7855 4.83726 43.8819C4.99998 43.9782 5.1319 44.1133 5.23301 44.2871C5.33413 44.4593 5.38468 44.6647 5.38468 44.9033C5.38468 45.1608 5.3207 45.3907 5.19273 45.5929C5.06634 45.7935 4.87912 45.9523 4.63108 46.0692C4.38304 46.1861 4.07734 46.2446 3.71397 46.2446H1.64038ZM2.66651 45.4057H3.50305C3.78901 45.4057 3.99755 45.3512 4.12868 45.2421C4.25981 45.1316 4.32538 44.9846 4.32538 44.8014C4.32538 44.6671 4.29299 44.5486 4.22821 44.4459C4.16344 44.3432 4.07102 44.2626 3.95095 44.2042C3.83246 44.1457 3.69106 44.1165 3.52675 44.1165H2.66651V45.4057ZM2.66651 43.4221H3.42722C3.56783 43.4221 3.69264 43.3976 3.80165 43.3487C3.91224 43.2981 3.99913 43.227 4.06233 43.1354C4.1271 43.0437 4.15949 42.9339 4.15949 42.806C4.15949 42.6306 4.09708 42.4892 3.97228 42.3818C3.84904 42.2743 3.67368 42.2206 3.44618 42.2206H2.66651V43.4221Z" fill="white"/>
<path d="M10.3233 46.2446V41.3912H11.3495V45.3985H13.4302V46.2446H10.3233Z" fill="white"/>
<path d="M19.341 46.2446H18.2415L19.9169 41.3912H21.2393L22.9123 46.2446H21.8128L20.597 42.5003H20.5591L19.341 46.2446ZM19.2723 44.3369H21.8696V45.1379H19.2723V44.3369Z" fill="white"/>
<path d="M31.8216 43.0904H30.7837C30.7647 42.9561 30.726 42.8368 30.6675 42.7325C30.6091 42.6267 30.534 42.5366 30.4424 42.4624C30.3508 42.3881 30.2449 42.3312 30.1248 42.2917C30.0064 42.2522 29.8776 42.2325 29.7386 42.2325C29.4874 42.2325 29.2686 42.2949 29.0821 42.4197C28.8957 42.5429 28.7511 42.723 28.6485 42.96C28.5458 43.1954 28.4944 43.4814 28.4944 43.8179C28.4944 44.1639 28.5458 44.4546 28.6485 44.69C28.7527 44.9254 28.8981 45.1031 29.0845 45.2232C29.2709 45.3433 29.4866 45.4033 29.7315 45.4033C29.8689 45.4033 29.9961 45.3851 30.113 45.3488C30.2315 45.3124 30.3365 45.2595 30.4282 45.19C30.5198 45.1189 30.5956 45.0328 30.6557 44.9317C30.7173 44.8306 30.76 44.7153 30.7837 44.5857L31.8216 44.5904C31.7948 44.8132 31.7276 45.0281 31.6202 45.235C31.5143 45.4404 31.3714 45.6245 31.1913 45.7872C31.0127 45.9483 30.7995 46.0763 30.5514 46.1711C30.305 46.2643 30.0261 46.3109 29.7149 46.3109C29.282 46.3109 28.8949 46.213 28.5537 46.0171C28.214 45.8212 27.9454 45.5376 27.7479 45.1663C27.552 44.795 27.4541 44.3456 27.4541 43.8179C27.4541 43.2886 27.5536 42.8384 27.7527 42.4671C27.9517 42.0958 28.2219 41.813 28.5631 41.6187C28.9044 41.4228 29.2883 41.3248 29.7149 41.3248C29.9961 41.3248 30.2568 41.3643 30.4969 41.4433C30.7386 41.5223 30.9527 41.6377 31.1391 41.7893C31.3256 41.9394 31.4772 42.1235 31.5941 42.3415C31.7126 42.5595 31.7885 42.8091 31.8216 43.0904Z" fill="white"/>
<path d="M36.8284 46.2446V41.3912H37.8546V43.5311H37.9185L39.6651 41.3912H40.895L39.094 43.5643L40.9163 46.2446H39.6888L38.3593 44.2492L37.8546 44.8653V46.2446H36.8284Z" fill="white"/>
<path d="M45.5155 42.2372V41.3912H49.5016V42.2372H48.0157V46.2446H47.0014V42.2372H45.5155Z" fill="white"/>
<path d="M54.429 46.2446V41.3912H57.6993V42.2372H55.4551V43.3937H57.531V44.2397H55.4551V45.3985H57.7088V46.2446H54.429Z" fill="white"/>
<path d="M67.0683 43.0904H66.0303C66.0114 42.9561 65.9727 42.8368 65.9142 42.7325C65.8558 42.6267 65.7807 42.5366 65.6891 42.4624C65.5975 42.3881 65.4916 42.3312 65.3715 42.2917C65.2531 42.2522 65.1243 42.2325 64.9853 42.2325C64.7341 42.2325 64.5153 42.2949 64.3288 42.4197C64.1424 42.5429 63.9978 42.723 63.8952 42.96C63.7925 43.1954 63.7411 43.4814 63.7411 43.8179C63.7411 44.1639 63.7925 44.4546 63.8952 44.69C63.9994 44.9254 64.1448 45.1031 64.3312 45.2232C64.5176 45.3433 64.7333 45.4033 64.9782 45.4033C65.1156 45.4033 65.2428 45.3851 65.3597 45.3488C65.4782 45.3124 65.5832 45.2595 65.6749 45.19C65.7665 45.1189 65.8423 45.0328 65.9024 44.9317C65.964 44.8306 66.0067 44.7153 66.0303 44.5857L67.0683 44.5904C67.0415 44.8132 66.9743 45.0281 66.8669 45.235C66.761 45.4404 66.6181 45.6245 66.438 45.7872C66.2594 45.9483 66.0462 46.0763 65.7981 46.1711C65.5517 46.2643 65.2728 46.3109 64.9616 46.3109C64.5287 46.3109 64.1416 46.213 63.8004 46.0171C63.4607 45.8212 63.1921 45.5376 62.9946 45.1663C62.7987 44.795 62.7008 44.3456 62.7008 43.8179C62.7008 43.2886 62.8003 42.8384 62.9994 42.4671C63.1984 42.0958 63.4686 41.813 63.8098 41.6187C64.1511 41.4228 64.535 41.3248 64.9616 41.3248C65.2428 41.3248 65.5035 41.3643 65.7436 41.4433C65.9853 41.5223 66.1994 41.6377 66.3858 41.7893C66.5723 41.9394 66.7239 42.1235 66.8408 42.3415C66.9593 42.5595 67.0351 42.8091 67.0683 43.0904Z" fill="white"/>
<path d="M72.0751 46.2446V41.3912H73.1012V43.3937H75.1843V41.3912H76.2081V46.2446H75.1843V44.2397H73.1012V46.2446H72.0751Z" fill="white"/>
<path d="M85.3846 41.3912V46.2446H84.4982L82.3867 43.1899H82.3512V46.2446H81.3251V41.3912H82.2256L84.3205 44.4435H84.3632V41.3912H85.3846Z" fill="white"/>
<path d="M94.9633 43.8179C94.9633 44.3471 94.863 44.7974 94.6623 45.1687C94.4633 45.5399 94.1915 45.8235 93.8471 46.0194C93.5043 46.2138 93.1188 46.3109 92.6907 46.3109C92.2593 46.3109 91.8723 46.213 91.5294 46.0171C91.1866 45.8212 90.9157 45.5376 90.7166 45.1663C90.5175 44.795 90.418 44.3456 90.418 43.8179C90.418 43.2886 90.5175 42.8384 90.7166 42.4671C90.9157 42.0958 91.1866 41.813 91.5294 41.6187C91.8723 41.4228 92.2593 41.3248 92.6907 41.3248C93.1188 41.3248 93.5043 41.4228 93.8471 41.6187C94.1915 41.813 94.4633 42.0958 94.6623 42.4671C94.863 42.8384 94.9633 43.2886 94.9633 43.8179ZM93.923 43.8179C93.923 43.4751 93.8716 43.1859 93.7689 42.9505C93.6678 42.7151 93.5248 42.5366 93.34 42.415C93.1551 42.2933 92.9387 42.2325 92.6907 42.2325C92.4426 42.2325 92.2262 42.2933 92.0413 42.415C91.8565 42.5366 91.7127 42.7151 91.61 42.9505C91.5089 43.1859 91.4584 43.4751 91.4584 43.8179C91.4584 44.1607 91.5089 44.4498 91.61 44.6852C91.7127 44.9206 91.8565 45.0992 92.0413 45.2208C92.2262 45.3425 92.4426 45.4033 92.6907 45.4033C92.9387 45.4033 93.1551 45.3425 93.34 45.2208C93.5248 45.0992 93.6678 44.9206 93.7689 44.6852C93.8716 44.4498 93.923 44.1607 93.923 43.8179Z" fill="white"/>
<path d="M99.9944 46.2446V41.3912H101.021V45.3985H103.101V46.2446H99.9944Z" fill="white"/>
<path d="M112.323 43.8179C112.323 44.3471 112.222 44.7974 112.022 45.1687C111.823 45.5399 111.551 45.8235 111.207 46.0194C110.864 46.2138 110.478 46.3109 110.05 46.3109C109.619 46.3109 109.232 46.213 108.889 46.0171C108.546 45.8212 108.275 45.5376 108.076 45.1663C107.877 44.795 107.777 44.3456 107.777 43.8179C107.777 43.2886 107.877 42.8384 108.076 42.4671C108.275 42.0958 108.546 41.813 108.889 41.6187C109.232 41.4228 109.619 41.3248 110.05 41.3248C110.478 41.3248 110.864 41.4228 111.207 41.6187C111.551 41.813 111.823 42.0958 112.022 42.4671C112.222 42.8384 112.323 43.2886 112.323 43.8179ZM111.282 43.8179C111.282 43.4751 111.231 43.1859 111.128 42.9505C111.027 42.7151 110.884 42.5366 110.699 42.415C110.515 42.2933 110.298 42.2325 110.05 42.2325C109.802 42.2325 109.586 42.2933 109.401 42.415C109.216 42.5366 109.072 42.7151 108.969 42.9505C108.868 43.1859 108.818 43.4751 108.818 43.8179C108.818 44.1607 108.868 44.4498 108.969 44.6852C109.072 44.9206 109.216 45.0992 109.401 45.2208C109.586 45.3425 109.802 45.4033 110.05 45.4033C110.298 45.4033 110.515 45.3425 110.699 45.2208C110.884 45.0992 111.027 44.9206 111.128 44.6852C111.231 44.4498 111.282 44.1607 111.282 43.8179Z" fill="white"/>
<path d="M120.572 42.96C120.539 42.8447 120.492 42.7428 120.432 42.6543C120.372 42.5643 120.299 42.4884 120.212 42.4268C120.126 42.3636 120.029 42.3154 119.918 42.2822C119.809 42.2491 119.688 42.2325 119.555 42.2325C119.307 42.2325 119.089 42.2941 118.901 42.4173C118.715 42.5406 118.57 42.7199 118.465 42.9553C118.361 43.1891 118.309 43.4751 118.309 43.8131C118.309 44.1512 118.36 44.4388 118.463 44.6758C118.566 44.9127 118.711 45.0936 118.899 45.2184C119.087 45.3417 119.309 45.4033 119.565 45.4033C119.797 45.4033 119.995 45.3622 120.16 45.2801C120.326 45.1963 120.452 45.0786 120.539 44.927C120.627 44.7753 120.672 44.596 120.672 44.389L120.88 44.4198H119.629V43.6473H121.66V44.2587C121.66 44.6852 121.57 45.0518 121.39 45.3583C121.209 45.6632 120.961 45.8986 120.645 46.0645C120.329 46.2288 119.968 46.3109 119.56 46.3109C119.105 46.3109 118.705 46.2106 118.361 46.01C118.017 45.8077 117.748 45.521 117.555 45.1497C117.364 44.7769 117.268 44.3345 117.268 43.8226C117.268 43.4292 117.325 43.0785 117.439 42.7704C117.554 42.4608 117.716 42.1985 117.923 41.9837C118.13 41.7688 118.37 41.6053 118.645 41.4931C118.92 41.3809 119.218 41.3248 119.539 41.3248C119.814 41.3248 120.07 41.3651 120.307 41.4457C120.544 41.5247 120.754 41.6369 120.937 41.7822C121.122 41.9276 121.273 42.1006 121.39 42.3012C121.507 42.5003 121.582 42.7199 121.615 42.96H120.572Z" fill="white"/>
<path d="M127.728 41.3912V46.2446H126.701V41.3912H127.728Z" fill="white"/>
<path d="M132.843 46.2446V41.3912H136.113V42.2372H133.869V43.3937H135.945V44.2397H133.869V45.3985H136.123V46.2446H132.843Z" fill="white"/>
<path d="M143.833 42.787C143.814 42.5959 143.732 42.4473 143.589 42.3415C143.445 42.2356 143.25 42.1827 143.003 42.1827C142.836 42.1827 142.695 42.2064 142.579 42.2538C142.464 42.2996 142.375 42.3636 142.314 42.4458C142.254 42.5279 142.224 42.6211 142.224 42.7254C142.221 42.8123 142.239 42.8881 142.278 42.9529C142.319 43.0177 142.375 43.0738 142.446 43.1212C142.518 43.167 142.6 43.2073 142.693 43.242C142.786 43.2752 142.886 43.3036 142.992 43.3273L143.428 43.4316C143.639 43.479 143.834 43.5422 144.011 43.6212C144.188 43.7002 144.341 43.7973 144.47 43.9127C144.6 44.028 144.7 44.1639 144.771 44.3203C144.844 44.4767 144.881 44.656 144.883 44.8582C144.881 45.1552 144.805 45.4128 144.655 45.6308C144.507 45.8472 144.292 46.0155 144.011 46.1356C143.731 46.2541 143.394 46.3133 142.999 46.3133C142.607 46.3133 142.266 46.2533 141.975 46.1332C141.686 46.0131 141.46 45.8354 141.297 45.6C141.136 45.363 141.051 45.0699 141.044 44.7208H142.036C142.048 44.8835 142.094 45.0194 142.176 45.1284C142.26 45.2358 142.371 45.3172 142.51 45.3725C142.651 45.4262 142.81 45.4531 142.987 45.4531C143.161 45.4531 143.311 45.4278 143.439 45.3772C143.569 45.3267 143.669 45.2564 143.74 45.1663C143.811 45.0763 143.847 44.9728 143.847 44.8559C143.847 44.7469 143.815 44.6552 143.75 44.581C143.687 44.5067 143.593 44.4435 143.47 44.3914C143.349 44.3392 143.199 44.2918 143.022 44.2492L142.494 44.1165C142.085 44.0169 141.762 43.8613 141.525 43.6496C141.288 43.4379 141.17 43.1528 141.172 42.7941C141.17 42.5003 141.248 42.2435 141.406 42.0239C141.566 41.8043 141.785 41.6329 142.063 41.5097C142.341 41.3865 142.657 41.3248 143.01 41.3248C143.371 41.3248 143.685 41.3865 143.954 41.5097C144.224 41.6329 144.434 41.8043 144.584 42.0239C144.734 42.2435 144.812 42.4979 144.816 42.787H143.833Z" fill="white"/>
</svg>