<svg width="1080" height="1080" viewBox="0 0 1080 1080" fill="none" xmlns="http://www.w3.org/2000/svg">
<g clip-path="url(#clip0_3_84)">
<rect width="1080" height="1080" fill="#171717" fill-opacity="0.03"/>
<rect width="1080" height="1080" fill="black" fill-opacity="0.01"/>
<path d="M907.091 594.382C905.152 595.998 903.428 597.076 901.92 597.615C900.519 598.153 899.118 598.045 897.718 597.291C896.425 596.537 894.97 595.244 893.354 593.413L817.074 499.355C814.811 496.769 813.68 494.452 813.68 492.405C813.68 490.358 815.08 488.096 817.882 485.618C819.821 483.894 821.491 482.816 822.892 482.385C824.4 481.847 825.854 481.955 827.255 482.709C828.656 483.355 830.11 484.648 831.619 486.587L907.899 580.807C910.377 583.5 911.616 585.871 911.616 587.918C911.616 589.857 910.108 592.012 907.091 594.382ZM818.043 594.382C815.134 592.012 813.68 589.857 813.68 587.918C813.68 585.871 814.865 583.5 817.235 580.807L893.516 486.587C895.132 484.648 896.586 483.355 897.879 482.709C899.28 481.955 900.681 481.847 902.081 482.385C903.59 482.816 905.313 483.894 907.253 485.618C910.162 488.096 911.616 490.358 911.616 492.405C911.616 494.452 910.431 496.769 908.061 499.355L831.78 593.413C830.164 595.244 828.656 596.537 827.255 597.291C825.962 598.045 824.562 598.153 823.053 597.615C821.653 597.076 819.983 595.998 818.043 594.382Z" fill="white"/>
<path d="M749.654 597.13C742.112 597.13 735.378 595.783 729.453 593.09C723.634 590.288 718.732 586.464 714.746 581.615C710.759 576.659 707.743 571.057 705.696 564.808C703.649 558.451 702.625 551.717 702.625 544.606V493.052C702.625 491.22 702.787 489.604 703.11 488.204C703.541 486.695 704.403 485.51 705.696 484.648C707.096 483.679 709.359 483.194 712.483 483.194C715.608 483.194 717.816 483.679 719.109 484.648C720.51 485.51 721.372 486.695 721.695 488.204C722.126 489.604 722.342 491.274 722.342 493.214V544.606C722.342 550.532 723.311 556.027 725.251 561.091C727.298 566.047 730.368 570.033 734.462 573.05C738.557 576.067 743.782 577.575 750.139 577.575C755.849 577.575 760.751 576.228 764.845 573.535C768.94 570.841 772.064 567.016 774.219 562.06C776.481 557.104 777.613 551.232 777.613 544.445V492.244C777.613 490.52 777.774 489.012 778.098 487.719C778.529 486.426 779.444 485.349 780.845 484.487C782.246 483.625 784.454 483.194 787.471 483.194C790.596 483.194 792.804 483.679 794.097 484.648C795.498 485.51 796.36 486.695 796.683 488.204C797.006 489.712 797.168 491.382 797.168 493.214V544.929C797.168 552.04 796.144 558.774 794.097 565.131C792.05 571.38 788.979 576.928 784.885 581.777C780.791 586.517 775.781 590.288 769.855 593.09C764.037 595.783 757.304 597.13 749.654 597.13Z" fill="white"/>
<path d="M622.219 596.322C619.095 596.322 616.832 595.837 615.432 594.867C614.031 594.005 613.115 592.82 612.684 591.312C612.361 589.803 612.199 588.187 612.199 586.463V493.214C612.199 491.382 612.361 489.712 612.684 488.204C613.115 486.695 613.977 485.51 615.27 484.648C616.671 483.786 618.933 483.355 622.058 483.355C625.075 483.355 627.229 483.786 628.522 484.648C629.923 485.51 630.785 486.695 631.108 488.204C631.539 489.712 631.754 491.382 631.754 493.214V578.868H681.046C682.662 578.868 684.117 579.029 685.409 579.353C686.702 579.568 687.726 580.322 688.48 581.615C689.234 582.8 689.611 584.74 689.611 587.433C689.611 590.127 689.234 592.12 688.48 593.413C687.726 594.598 686.702 595.352 685.409 595.675C684.117 596.106 682.662 596.322 681.046 596.322H622.219Z" fill="white"/>
<path d="M409.912 596.16C407.111 596.16 405.01 595.675 403.609 594.706C402.209 593.844 401.293 592.659 400.862 591.15C400.431 589.642 400.216 588.026 400.216 586.302V492.89C400.216 491.167 400.377 489.604 400.7 488.204C401.131 486.695 402.047 485.51 403.448 484.648C404.848 483.679 407.057 483.194 410.074 483.194L440.457 483.355C448.322 483.355 455.541 484.702 462.113 487.396C468.793 490.089 474.557 493.914 479.405 498.87C484.254 503.826 487.971 509.752 490.556 516.647C493.25 523.435 494.597 530.923 494.597 539.111C494.597 547.515 493.25 555.219 490.556 562.222C487.863 569.225 484.092 575.258 479.244 580.322C474.395 585.386 468.631 589.319 461.951 592.12C455.379 594.813 448.053 596.16 439.972 596.16H409.912ZM419.771 576.605H440.457C447.352 576.605 453.386 575.097 458.557 572.08C463.729 568.956 467.715 564.646 470.517 559.151C473.426 553.656 474.88 547.246 474.88 539.919C474.88 532.485 473.426 526.021 470.517 520.526C467.715 514.923 463.675 510.614 458.396 507.597C453.224 504.473 447.191 502.91 440.295 502.91H419.771V576.605Z" fill="#4F46E5"/>
<path d="M177.919 596.16C175.118 596.16 173.017 595.729 171.616 594.867C170.215 594.005 169.3 592.82 168.869 591.312C168.545 589.803 168.384 588.133 168.384 586.302V493.052C168.384 491.328 168.545 489.766 168.869 488.365C169.3 486.857 170.215 485.672 171.616 484.81C173.017 483.84 175.225 483.355 178.242 483.355C180.505 483.355 182.175 483.517 183.252 483.84C184.437 484.056 185.353 484.433 185.999 484.971C186.646 485.402 187.292 485.995 187.939 486.749L227.372 541.859H223.655L263.25 486.588C264.004 485.726 264.758 485.079 265.512 484.648C266.267 484.217 267.236 483.894 268.421 483.679C269.606 483.463 271.169 483.355 273.108 483.355C276.017 483.355 278.172 483.84 279.573 484.81C280.973 485.672 281.835 486.857 282.158 488.365C282.589 489.874 282.805 491.544 282.805 493.375V586.625C282.805 588.241 282.589 589.803 282.158 591.312C281.835 592.82 280.973 594.005 279.573 594.867C278.172 595.729 275.963 596.16 272.946 596.16C270.037 596.16 267.883 595.675 266.482 594.706C265.081 593.844 264.166 592.659 263.735 591.15C263.411 589.642 263.25 588.026 263.25 586.302V516.97L233.836 559.474C233.513 559.905 233.028 560.498 232.382 561.252C231.736 561.898 230.874 562.491 229.796 563.03C228.719 563.568 227.264 563.838 225.433 563.838C223.709 563.838 222.308 563.568 221.231 563.03C220.153 562.491 219.291 561.898 218.645 561.252C218.106 560.606 217.568 559.959 217.029 559.313L187.777 516.97V586.625C187.777 588.241 187.562 589.803 187.131 591.312C186.808 592.82 185.946 594.005 184.545 594.867C183.144 595.729 180.936 596.16 177.919 596.16Z" fill="#4F46E5"/>
<rect x="300.184" y="483.355" width="87.475" height="17.5625" fill="white"/>
<rect x="534.199" y="483.355" width="53.5803" height="17.5625" fill="white"/>
<rect x="300.184" y="530.896" width="87.475" height="17.5625" fill="white"/>
<rect x="534.199" y="530.896" width="53.5803" height="17.5625" fill="white"/>
<rect x="300.184" y="578.598" width="87.475" height="17.5625" fill="white"/>
<rect width="112.805" height="17.5625" transform="matrix(0 -1 -1 0 523.936 596.16)" fill="white"/>
</g>
<defs>
<clipPath id="clip0_3_84">
<rect width="1080" height="1080" fill="white"/>
</clipPath>
</defs>
</svg>
