<svg width="744" height="116" viewBox="0 0 744 116" fill="none" xmlns="http://www.w3.org/2000/svg">
<path d="M738.707 112.333C736.768 113.95 735.044 115.027 733.536 115.566C732.135 116.104 730.735 115.997 729.334 115.242C728.041 114.488 726.587 113.195 724.97 111.364L648.69 17.3059C646.427 14.7201 645.296 12.4037 645.296 10.3566C645.296 8.30953 646.697 6.04697 649.498 3.56893C651.437 1.84507 653.107 0.767655 654.508 0.33669C656.016 -0.202014 657.471 -0.0942736 658.871 0.659917C660.272 1.30636 661.726 2.59925 663.235 4.53859L739.515 98.7581C741.993 101.452 743.233 103.822 743.233 105.869C743.233 107.808 741.724 109.963 738.707 112.333ZM649.659 112.333C646.75 109.963 645.296 107.808 645.296 105.869C645.296 103.822 646.481 101.452 648.851 98.7581L725.132 4.53859C726.748 2.59925 728.203 1.30636 729.496 0.659917C730.896 -0.0942736 732.297 -0.202014 733.697 0.33669C735.206 0.767655 736.93 1.84507 738.869 3.56893C741.778 6.04697 743.233 8.30953 743.233 10.3566C743.233 12.4037 742.047 14.7201 739.677 17.3059L663.396 111.364C661.78 113.195 660.272 114.488 658.871 115.242C657.578 115.997 656.178 116.104 654.669 115.566C653.269 115.027 651.599 113.95 649.659 112.333Z" fill="black"/>
<path d="M581.27 115.081C573.728 115.081 566.995 113.734 561.069 111.041C555.251 108.24 550.349 104.415 546.362 99.5664C542.376 94.6103 539.359 89.0078 537.312 82.7588C535.265 76.4021 534.241 69.6683 534.241 62.5574V11.0033C534.241 9.17173 534.403 7.55561 534.726 6.15498C535.157 4.64661 536.019 3.46146 537.312 2.59953C538.713 1.62986 540.975 1.14502 544.1 1.14502C547.224 1.14502 549.433 1.62986 550.726 2.59953C552.126 3.46146 552.988 4.64661 553.311 6.15498C553.742 7.55561 553.958 9.2256 553.958 11.1649V62.5574C553.958 68.4832 554.928 73.978 556.867 79.0418C558.914 83.9979 561.985 87.9843 566.079 91.001C570.173 94.0178 575.398 95.5261 581.755 95.5261C587.465 95.5261 592.368 94.1794 596.462 91.4859C600.556 88.7923 603.68 84.9675 605.835 80.0115C608.098 75.0554 609.229 69.1835 609.229 62.3958V10.1953C609.229 8.47141 609.391 6.96304 609.714 5.67014C610.145 4.37725 611.061 3.29984 612.461 2.43791C613.862 1.57598 616.071 1.14502 619.087 1.14502C622.212 1.14502 624.421 1.62986 625.713 2.59953C627.114 3.46146 627.976 4.64661 628.299 6.15498C628.622 7.66335 628.784 9.33334 628.784 11.1649V62.8806C628.784 69.9915 627.76 76.7254 625.713 83.0821C623.666 89.3311 620.596 94.8797 616.502 99.7281C612.407 104.469 607.397 108.24 601.472 111.041C595.654 113.734 588.92 115.081 581.27 115.081Z" fill="black"/>
<path d="M453.836 114.273C450.711 114.273 448.449 113.788 447.048 112.818C445.647 111.956 444.731 110.771 444.3 109.263C443.977 107.755 443.816 106.138 443.816 104.415V11.1647C443.816 9.3331 443.977 7.66311 444.3 6.15474C444.731 4.64636 445.593 3.46121 446.886 2.59928C448.287 1.73736 450.549 1.3064 453.674 1.3064C456.691 1.3064 458.846 1.73736 460.138 2.59928C461.539 3.46121 462.401 4.64636 462.724 6.15474C463.155 7.66311 463.371 9.3331 463.371 11.1647V96.8188H512.662C514.278 96.8188 515.733 96.9804 517.026 97.3036C518.319 97.5191 519.342 98.2733 520.096 99.5662C520.85 100.751 521.228 102.691 521.228 105.384C521.228 108.078 520.85 110.071 520.096 111.364C519.342 112.549 518.319 113.303 517.026 113.626C515.733 114.057 514.278 114.273 512.662 114.273H453.836Z" fill="black"/>
<path d="M241.528 114.111C238.727 114.111 236.626 113.627 235.226 112.657C233.825 111.795 232.909 110.61 232.478 109.102C232.047 107.593 231.832 105.977 231.832 104.253V10.8417C231.832 9.11786 231.993 7.55561 232.317 6.15498C232.748 4.64661 233.663 3.46146 235.064 2.59953C236.465 1.62986 238.673 1.14502 241.69 1.14502L272.073 1.30664C279.938 1.30664 287.157 2.6534 293.729 5.34692C300.409 8.04045 306.173 11.8653 311.021 16.8213C315.87 21.7774 319.587 27.7032 322.173 34.5986C324.866 41.3863 326.213 48.8743 326.213 57.0626C326.213 65.4664 324.866 73.1699 322.173 80.1731C319.479 87.1762 315.708 93.2097 310.86 98.2735C306.011 103.337 300.247 107.27 293.567 110.071C286.995 112.765 279.669 114.111 271.588 114.111H241.528ZM251.387 94.5565H272.073C278.968 94.5565 285.002 93.0481 290.174 90.0314C295.345 86.9069 299.332 82.5972 302.133 77.1024C305.042 71.6076 306.496 65.1971 306.496 57.8707C306.496 50.4365 305.042 43.9721 302.133 38.4773C299.332 32.8748 295.291 28.5651 290.012 25.5484C284.84 22.4239 278.807 20.8616 271.911 20.8616H251.387V94.5565Z" fill="#4F46E5"/>
<path d="M9.53508 114.111C6.73381 114.111 4.63286 113.68 3.23223 112.818C1.8316 111.956 0.915799 110.771 0.484835 109.263C0.161612 107.755 0 106.085 0 104.253V11.0031C0 9.27923 0.161612 7.71698 0.484835 6.31635C0.915799 4.80797 1.8316 3.62282 3.23223 2.7609C4.63286 1.79123 6.84155 1.3064 9.8583 1.3064C12.1209 1.3064 13.7909 1.468 14.8683 1.79122C16.0534 2.00671 16.9692 2.38381 17.6157 2.92251C18.2621 3.35348 18.9085 3.94605 19.555 4.70024L58.9882 59.8098H55.2711L94.866 4.53862C95.6202 3.67669 96.3743 3.03025 97.1285 2.59928C97.8827 2.16832 98.8524 1.84509 100.038 1.62962C101.223 1.41414 102.785 1.3064 104.724 1.3064C107.633 1.3064 109.788 1.79123 111.189 2.7609C112.589 3.62282 113.451 4.80797 113.775 6.31635C114.205 7.82472 114.421 9.49471 114.421 11.3263V104.576C114.421 106.192 114.205 107.755 113.775 109.263C113.451 110.771 112.589 111.956 111.189 112.818C109.788 113.68 107.579 114.111 104.563 114.111C101.654 114.111 99.4988 113.626 98.0982 112.657C96.6976 111.795 95.7818 110.61 95.3508 109.101C95.0276 107.593 94.866 105.977 94.866 104.253V34.9216L65.4527 77.4254C65.1294 77.8564 64.6446 78.449 63.9982 79.2031C63.3517 79.8496 62.4898 80.4422 61.4124 80.9809C60.335 81.5196 58.8805 81.7889 57.0489 81.7889C55.325 81.7889 53.9244 81.5196 52.847 80.9809C51.7696 80.4422 50.9076 79.8496 50.2612 79.2031C49.7225 78.5567 49.1838 77.9103 48.6451 77.2638L19.3934 34.9216V104.576C19.3934 106.192 19.1779 107.755 18.7469 109.263C18.4237 110.771 17.5618 111.956 16.1612 112.818C14.7605 113.68 12.5518 114.111 9.53508 114.111Z" fill="#4F46E5"/>
<rect x="131.8" y="1.3064" width="87.475" height="17.5625" fill="black"/>
<rect x="365.815" y="1.3064" width="53.5803" height="17.5625" fill="black"/>
<rect x="131.8" y="48.8467" width="87.475" height="17.5625" fill="black"/>
<rect x="365.815" y="48.8467" width="53.5803" height="17.5625" fill="black"/>
<rect x="131.8" y="96.5488" width="87.475" height="17.5625" fill="black"/>
<rect width="112.805" height="17.5625" transform="matrix(0 -1 -1 0 355.552 114.111)" fill="black"/>
</svg>
